<?xml version="1.0" encoding="UTF-8"?>
<svg width="120px" height="40px" viewBox="0 0 120 40" version="1.1" xmlns="http://www.w3.org/2000/svg" xmlns:xlink="http://www.w3.org/1999/xlink">
    <title>Group</title>
    <defs>
        <polygon id="path-1" points="0 0.0397585506 119.664 0.0397585506 119.664 39.7585513 0 39.7585513"></polygon>
    </defs>
    <g id="Page-1" stroke="none" stroke-width="1" fill="none" fill-rule="evenodd">
        <g id="Crictracker_Home_28Jul2021_Article" transform="translate(-76.000000, -8305.000000)">
            <g id="Group-93" transform="translate(0.000000, 7839.000000)">
                <g id="Group" transform="translate(76.000000, 466.000000)">
                    <g id="Group-3">
                        <mask id="mask-2" fill="white">
                            <use xlink:href="#path-1"></use>
                        </mask>
                        <g id="Clip-2"></g>
                        <path d="M110.134,0 L9.535,0 C9.168,0 8.806,0 8.44,0.00198792757 C8.134,0.00397585513 7.83,0.00993963783 7.521,0.0149094567 C6.855,0.0308128773 6.182,0.0715653924 5.517,0.189847082 C4.848,0.307134809 4.226,0.505927565 3.616,0.813062374 C3.018,1.11820926 2.471,1.51380684 1.998,1.98494567 C1.519,2.45608451 1.123,3.00177062 0.819,3.59616097 C0.508,4.20148491 0.311,4.82271227 0.194,5.48767404 C0.074,6.14667203 0.032,6.81262777 0.015,7.47758954 C0.006,7.78273642 0.005,8.08887726 0,8.39303018 C0,8.75383903 0,9.11464789 0,9.47843863 L0,30.2811066 C0,30.6478793 0,31.0067002 0,31.368503 C0.005,31.6766318 0.006,31.9758149 0.015,32.2839437 C0.032,32.9498994 0.074,33.6158551 0.194,34.2738592 C0.311,34.9398149 0.508,35.5640241 0.819,36.1673602 C1.123,36.7587686 1.519,37.3044547 1.998,37.7716177 C2.471,38.2467324 3.018,38.641336 3.616,38.943501 C4.226,39.2536177 4.848,39.4504225 5.517,39.5706922 C6.182,39.6889738 6.855,39.7277384 7.521,39.7456298 C7.83,39.7525875 8.134,39.7565634 8.44,39.7565634 C8.806,39.7585513 9.168,39.7585513 9.535,39.7585513 L110.134,39.7585513 C110.495,39.7585513 110.859,39.7585513 111.218,39.7565634 C111.524,39.7565634 111.836,39.7525875 112.141,39.7456298 C112.811,39.7277384 113.483,39.6889738 114.141,39.5706922 C114.811,39.4504225 115.433,39.2536177 116.049,38.943501 C116.646,38.641336 117.193,38.2467324 117.667,37.7716177 C118.142,37.3044547 118.539,36.7587686 118.847,36.1673602 C119.154,35.5640241 119.354,34.9398149 119.466,34.2738592 C119.59,33.6158551 119.628,32.9498994 119.653,32.2839437 C119.656,31.9758149 119.656,31.6766318 119.656,31.368503 C119.664,31.0067002 119.664,30.6478793 119.664,30.2811066 L119.664,9.47843863 C119.664,9.11464789 119.664,8.75383903 119.656,8.39303018 C119.656,8.08887726 119.656,7.78273642 119.653,7.47758954 C119.628,6.81262777 119.59,6.14667203 119.466,5.48767404 C119.354,4.82271227 119.154,4.20148491 118.847,3.59616097 C118.539,3.00177062 118.142,2.45608451 117.667,1.98494567 C117.193,1.51380684 116.646,1.11820926 116.049,0.813062374 C115.433,0.505927565 114.811,0.307134809 114.141,0.189847082 C113.483,0.0715653924 112.811,0.0308128773 112.141,0.0149094567 C111.836,0.00993963783 111.524,0.00397585513 111.218,0.00198792757 C110.859,0 110.495,0 110.134,0" id="Fill-1" fill="#A9AAA9" mask="url(#mask-2)"></path>
                    </g>
                    <path d="M8.445,38.888833 C8.14,38.888833 7.843,38.8848571 7.541,38.8778994 C6.981,38.8629899 6.318,38.8311831 5.671,38.7158833 C5.061,38.6065473 4.519,38.4276338 4.015,38.1711911 C3.493,37.9087847 3.024,37.5688491 2.618,37.1613239 C2.204,36.7567807 1.863,36.2935936 1.597,35.7727565 C1.338,35.2708048 1.161,34.7320765 1.054,34.1257586 C0.932,33.4568209 0.901,32.7789376 0.888,32.2620765 C0.881,32.0523501 0.873,31.3545875 0.873,31.3545875 L0.873,8.39303018 C0.873,8.39303018 0.882,7.70620121 0.888,7.50442656 C0.901,6.98358954 0.932,6.30570624 1.053,5.64372636 C1.16,5.0334326 1.337,4.49470423 1.597,3.99175855 C1.862,3.46992757 2.203,3.00375855 2.612,2.60219718 C3.025,2.19069618 3.496,1.8497666 4.014,1.58537223 C4.528,1.32594769 5.069,1.14902213 5.667,1.04465594 C6.341,0.925380282 7.023,0.894567404 7.543,0.881645875 L8.445,0.86971831 L111.213,0.86971831 L112.126,0.882639839 C112.639,0.894567404 113.322,0.925380282 113.985,1.04366197 C114.587,1.14902213 115.133,1.32694165 115.656,1.58835412 C116.169,1.8497666 116.638,2.19069618 117.047,2.59822133 C117.458,3.00177062 117.799,3.47092153 118.071,3.99374648 C118.329,4.50166197 118.504,5.04039034 118.607,5.63279276 C118.722,6.2599839 118.758,6.90407243 118.78,7.50840241 C118.783,7.78969416 118.783,8.09285312 118.783,8.39303018 C118.792,8.7657666 118.792,9.12061167 118.792,9.47843863 L118.792,30.2811066 C118.792,30.6419155 118.792,30.9947726 118.783,31.3496177 C118.783,31.6726559 118.783,31.9688571 118.779,32.274004 C118.758,32.8594487 118.722,33.5025433 118.608,34.1158189 C118.504,34.7251187 118.329,35.2638471 118.068,35.7757384 C117.799,36.2925996 117.456,36.7587686 117.053,37.1533722 C116.639,37.5688491 116.17,37.9077907 115.654,38.1692032 C115.134,38.4316097 114.605,38.6055533 113.985,38.7158833 C113.345,38.8311831 112.682,38.8629899 112.116,38.8778994 C111.824,38.8848571 111.516,38.888833 111.218,38.888833 L110.134,38.8908209 L8.445,38.888833" id="Fill-4" fill="#000000"></path>
                    <path d="M24.769,20.1784588 C24.744,17.4440644 27.021,16.1131469 27.126,16.0505272 C25.836,14.1818753 23.836,13.9264266 23.134,13.9065473 C21.455,13.7306157 19.827,14.9054809 18.971,14.9054809 C18.099,14.9054809 16.782,13.9234447 15.363,13.9532636 C13.537,13.9810946 11.827,15.0327082 10.89,16.6647968 C8.956,19.9925875 10.399,24.8838833 12.251,27.5735493 C13.178,28.8915453 14.261,30.3636056 15.679,30.3109256 C17.066,30.2542696 17.584,29.4312676 19.258,29.4312676 C20.917,29.4312676 21.403,30.3109256 22.849,30.2781247 C24.337,30.2542696 25.275,28.954165 26.17,27.6242414 C27.241,26.1144105 27.671,24.6264467 27.688,24.5509054 C27.653,24.5389779 24.797,23.4565513 24.769,20.1784588" id="Fill-5" fill="#FFFFFE"></path>
                    <path d="M22.037,12.1372918 C22.783,11.2099235 23.293,9.9485835 23.152,8.66736419 C22.072,8.71507445 20.722,9.40985513 19.944,10.3173441 C19.256,11.1164909 18.642,12.4265352 18.8,13.6580563 C20.013,13.748507 21.259,13.0497505 22.037,12.1372918" id="Fill-6" fill="#FFFFFE"></path>
                    <path d="M38.059,25.4365272 L41.811,25.4365272 L39.961,20.0224064 L39.91,20.0224064 L38.059,25.4365272 Z M42.302,26.9761771 L37.569,26.9761771 L36.432,30.3119195 L34.427,30.3119195 L38.911,17.9688773 L40.994,17.9688773 L45.477,30.3119195 L43.438,30.3119195 L42.302,26.9761771 L42.302,26.9761771 Z" id="Fill-7" fill="#FFFFFE"></path>
                    <path d="M53.25,25.8132394 C53.25,23.9913038 52.302,22.7935775 50.857,22.7935775 C49.437,22.7935775 48.482,24.0161529 48.482,25.8132394 C48.482,27.6262294 49.437,28.8408531 50.857,28.8408531 C52.302,28.8408531 53.25,27.6510785 53.25,25.8132394 Z M55.16,25.8132394 C55.16,28.6092596 53.654,30.4063461 51.381,30.4063461 C50.091,30.4063461 49.067,29.832829 48.533,28.8319074 L48.49,28.8319074 L48.49,33.288841 L46.631,33.288841 L46.631,21.3125714 L48.43,21.3125714 L48.43,22.8094809 L48.464,22.8094809 C48.981,21.8443421 50.083,21.2191388 51.347,21.2191388 C53.645,21.2191388 55.16,23.0241771 55.16,25.8132394 L55.16,25.8132394 Z" id="Fill-8" fill="#FFFFFE"></path>
                    <path d="M63.214,25.8132394 C63.214,23.9913038 62.267,22.7935775 60.822,22.7935775 C59.402,22.7935775 58.447,24.0161529 58.447,25.8132394 C58.447,27.6262294 59.402,28.8408531 60.822,28.8408531 C62.267,28.8408531 63.214,27.6510785 63.214,25.8132394 Z M65.124,25.8132394 C65.124,28.6092596 63.619,30.4063461 61.346,30.4063461 C60.056,30.4063461 59.032,29.832829 58.498,28.8319074 L58.455,28.8319074 L58.455,33.288841 L56.596,33.288841 L56.596,21.3125714 L58.395,21.3125714 L58.395,22.8094809 L58.429,22.8094809 C58.946,21.8443421 60.047,21.2191388 61.312,21.2191388 C63.61,21.2191388 65.124,23.0241771 65.124,25.8132394 L65.124,25.8132394 Z" id="Fill-9" fill="#FFFFFE"></path>
                    <path d="M71.711,26.8728048 C71.848,28.0973682 73.045,28.9004909 74.679,28.9004909 C76.246,28.9004909 77.373,28.0973682 77.373,26.9930744 C77.373,26.0348934 76.693,25.4613763 75.084,25.0687606 L73.474,24.6831026 C71.194,24.1354286 70.135,23.0758632 70.135,21.3553119 C70.135,19.2262414 72.003,17.7631268 74.654,17.7631268 C77.278,17.7631268 79.077,19.2262414 79.137,21.3553119 L77.261,21.3553119 C77.149,20.1237907 76.124,19.3803058 74.628,19.3803058 C73.13,19.3803058 72.106,20.1327364 72.106,21.2270905 C72.106,22.0997907 72.76,22.61367 74.361,23.0072797 L75.729,23.3402575 C78.277,23.9396177 79.336,24.9564427 79.336,26.7624748 C79.336,29.0714527 77.485,30.51767 74.542,30.51767 C71.788,30.51767 69.928,29.1052475 69.808,26.8728048 L71.711,26.8728048" id="Fill-10" fill="#FFFFFE"></path>
                    <path d="M83.346,19.183501 L83.346,21.3125714 L85.068,21.3125714 L85.068,22.7756861 L83.346,22.7756861 L83.346,27.7365594 C83.346,28.5078753 83.691,28.8666962 84.448,28.8666962 C84.637,28.8666962 84.939,28.8408531 85.059,28.8239557 L85.059,30.2781247 C84.853,30.3298109 84.44,30.3636056 84.027,30.3636056 C82.194,30.3636056 81.479,29.6787646 81.479,27.9343581 L81.479,22.7756861 L80.163,22.7756861 L80.163,21.3125714 L81.479,21.3125714 L81.479,19.183501 L83.346,19.183501" id="Fill-11" fill="#FFFFFE"></path>
                    <path d="M92.76,25.8132394 C92.76,23.8710342 91.865,22.724 90.359,22.724 C88.853,22.724 87.959,23.8789859 87.959,25.8132394 C87.959,27.7633964 88.853,28.9004909 90.359,28.9004909 C91.865,28.9004909 92.76,27.7633964 92.76,25.8132394 Z M86.065,25.8132394 C86.065,22.9814366 87.743,21.2022414 90.359,21.2022414 C92.984,21.2022414 94.654,22.9814366 94.654,25.8132394 C94.654,28.652 92.993,30.4232435 90.359,30.4232435 C87.726,30.4232435 86.065,28.652 86.065,25.8132394 L86.065,25.8132394 Z" id="Fill-12" fill="#FFFFFE"></path>
                    <path d="M96.186,21.3125714 L97.959,21.3125714 L97.959,22.8442696 L98.002,22.8442696 C98.286,21.8264507 99.112,21.2191388 100.179,21.2191388 C100.446,21.2191388 100.669,21.2539276 100.816,21.2877223 L100.816,23.0152314 C100.669,22.9555936 100.342,22.9039074 99.981,22.9039074 C98.785,22.9039074 98.045,23.7090181 98.045,24.974334 L98.045,30.3119195 L96.186,30.3119195 L96.186,21.3125714" id="Fill-13" fill="#FFFFFE"></path>
                    <path d="M103.102,24.9832797 L107.628,24.9832797 C107.585,23.6056459 106.699,22.6991509 105.408,22.6991509 C104.126,22.6991509 103.197,23.6235372 103.102,24.9832797 Z M109.384,27.6689698 C109.134,29.3030463 107.534,30.4232435 105.486,30.4232435 C102.852,30.4232435 101.217,28.6698913 101.217,25.8559799 C101.217,23.0331227 102.861,21.2022414 105.408,21.2022414 C107.913,21.2022414 109.488,22.9128531 109.488,25.6412837 L109.488,26.2744386 L103.093,26.2744386 L103.093,26.3857626 C103.093,27.9254125 104.066,28.9342857 105.529,28.9342857 C106.561,28.9342857 107.371,28.4472435 107.62,27.6689698 L109.384,27.6689698 L109.384,27.6689698 Z" id="Fill-14" fill="#FFFFFE"></path>
                    <path d="M36.598,13.7703742 L37.723,13.7703742 C38.971,13.7703742 39.69,12.9980644 39.69,11.637328 C39.69,10.2974648 38.959,9.51620926 37.723,9.51620926 L36.598,9.51620926 L36.598,13.7703742 Z M37.826,8.67829779 C39.596,8.67829779 40.634,9.75873642 40.634,11.6254004 C40.634,13.5198954 39.604,14.6092797 37.826,14.6092797 L35.671,14.6092797 L35.671,8.67829779 L37.826,8.67829779 L37.826,8.67829779 Z" id="Fill-15" fill="#FFFFFE"></path>
                    <path d="M45.014,12.3688853 C45.014,11.3987767 44.575,10.8322173 43.806,10.8322173 C43.033,10.8322173 42.599,11.3987767 42.599,12.3688853 C42.599,13.3469457 43.033,13.9105231 43.806,13.9105231 C44.575,13.9105231 45.014,13.3429698 45.014,12.3688853 Z M41.681,12.3688853 C41.681,10.9266439 42.491,10.0469859 43.806,10.0469859 C45.117,10.0469859 45.928,10.9266439 45.928,12.3688853 C45.928,13.8200724 45.121,14.6957545 43.806,14.6957545 C42.487,14.6957545 41.681,13.8200724 41.681,12.3688853 L41.681,12.3688853 Z" id="Fill-16" fill="#FFFFFE"></path>
                    <polyline id="Fill-17" fill="#FFFFFE" points="51.573 14.6092797 50.651 14.6092797 49.721 11.3123018 49.65 11.3123018 48.724 14.6092797 47.811 14.6092797 46.569 10.1334608 47.471 10.1334608 48.277 13.5487203 48.344 13.5487203 49.27 10.1334608 50.122 10.1334608 51.048 13.5487203 51.118 13.5487203 51.921 10.1334608 52.81 10.1334608 51.573 14.6092797"></polyline>
                    <path d="M53.854,10.1334608 L54.709,10.1334608 L54.709,10.8441449 L54.775,10.8441449 C54.994,10.347163 55.441,10.0469859 56.119,10.0469859 C57.124,10.0469859 57.678,10.6463461 57.678,11.7118753 L57.678,14.6092797 L56.789,14.6092797 L56.789,11.9335292 C56.789,11.2138994 56.475,10.8560724 55.817,10.8560724 C55.16,10.8560724 54.742,11.2924225 54.742,11.9901851 L54.742,14.6092797 L53.854,14.6092797 L53.854,10.1334608" id="Fill-18" fill="#FFFFFE"></path>
                    <polygon id="Fill-19" fill="#FFFFFE" points="59.094 14.6092797 59.983 14.6092797 59.983 8.38607243 59.094 8.38607243"></polygon>
                    <path d="M64.551,12.3688853 C64.551,11.3987767 64.112,10.8322173 63.343,10.8322173 C62.57,10.8322173 62.136,11.3987767 62.136,12.3688853 C62.136,13.3469457 62.57,13.9105231 63.343,13.9105231 C64.112,13.9105231 64.551,13.3429698 64.551,12.3688853 Z M61.218,12.3688853 C61.218,10.9266439 62.028,10.0469859 63.343,10.0469859 C64.654,10.0469859 65.465,10.9266439 65.465,12.3688853 C65.465,13.8200724 64.658,14.6957545 63.343,14.6957545 C62.024,14.6957545 61.218,13.8200724 61.218,12.3688853 L61.218,12.3688853 Z" id="Fill-20" fill="#FFFFFE"></path>
                    <path d="M69.295,12.9612877 L69.295,12.5865634 L68.196,12.6561408 C67.576,12.6978873 67.295,12.9076137 67.295,13.3022173 C67.295,13.7047726 67.646,13.9393481 68.129,13.9393481 C68.799,13.9393481 69.295,13.5159195 69.295,12.9612877 Z M66.401,13.3429698 C66.401,12.5378592 67.004,12.0726841 68.076,12.0070825 L69.295,11.937505 L69.295,11.5508531 C69.295,11.0787203 68.981,10.8113441 68.374,10.8113441 C67.878,10.8113441 67.534,10.9922455 67.435,11.308326 L66.575,11.308326 C66.666,10.539992 67.393,10.0469859 68.415,10.0469859 C69.544,10.0469859 70.18,10.6055936 70.18,11.5508531 L70.18,14.6092797 L69.325,14.6092797 L69.325,13.9801006 L69.254,13.9801006 C68.986,14.4283783 68.494,14.682833 67.902,14.682833 C67.034,14.682833 66.401,14.161002 66.401,13.3429698 L66.401,13.3429698 Z" id="Fill-21" fill="#FFFFFE"></path>
                    <path d="M72.266,12.3688853 C72.266,13.3181207 72.716,13.8896499 73.469,13.8896499 C74.218,13.8896499 74.681,13.310169 74.681,12.3728612 C74.681,11.4405231 74.213,10.8520966 73.469,10.8520966 C72.721,10.8520966 72.266,11.4276016 72.266,12.3688853 Z M71.348,12.3688853 C71.348,10.9544748 72.08,10.0589135 73.217,10.0589135 C73.834,10.0589135 74.354,10.3511388 74.598,10.8441449 L74.665,10.8441449 L74.665,8.38607243 L75.553,8.38607243 L75.553,14.6092797 L74.702,14.6092797 L74.702,13.9015775 L74.631,13.9015775 C74.363,14.3916016 73.837,14.682833 73.217,14.682833 C72.072,14.682833 71.348,13.7872716 71.348,12.3688853 L71.348,12.3688853 Z" id="Fill-22" fill="#FFFFFE"></path>
                    <path d="M82.563,12.3688853 C82.563,11.3987767 82.124,10.8322173 81.355,10.8322173 C80.582,10.8322173 80.148,11.3987767 80.148,12.3688853 C80.148,13.3469457 80.582,13.9105231 81.355,13.9105231 C82.124,13.9105231 82.563,13.3429698 82.563,12.3688853 Z M79.23,12.3688853 C79.23,10.9266439 80.041,10.0469859 81.355,10.0469859 C82.666,10.0469859 83.477,10.9266439 83.477,12.3688853 C83.477,13.8200724 82.67,14.6957545 81.355,14.6957545 C80.037,14.6957545 79.23,13.8200724 79.23,12.3688853 L79.23,12.3688853 Z" id="Fill-23" fill="#FFFFFE"></path>
                    <path d="M84.67,10.1334608 L85.525,10.1334608 L85.525,10.8441449 L85.591,10.8441449 C85.81,10.347163 86.257,10.0469859 86.935,10.0469859 C87.94,10.0469859 88.494,10.6463461 88.494,11.7118753 L88.494,14.6092797 L87.605,14.6092797 L87.605,11.9335292 C87.605,11.2138994 87.291,10.8560724 86.633,10.8560724 C85.976,10.8560724 85.558,11.2924225 85.558,11.9901851 L85.558,14.6092797 L84.67,14.6092797 L84.67,10.1334608" id="Fill-24" fill="#FFFFFE"></path>
                    <path d="M93.515,9.01922736 L93.515,10.15334 L94.491,10.15334 L94.491,10.8978189 L93.515,10.8978189 L93.515,13.1988451 C93.515,13.667996 93.71,13.8737465 94.152,13.8737465 C94.289,13.8737465 94.367,13.8648008 94.491,13.8528732 L94.491,14.5884064 C94.346,14.6132555 94.18,14.6341288 94.007,14.6341288 C93.019,14.6341288 92.626,14.2882294 92.626,13.4254688 L92.626,10.8978189 L91.911,10.8978189 L91.911,10.15334 L92.626,10.15334 L92.626,9.01922736 L93.515,9.01922736" id="Fill-25" fill="#FFFFFE"></path>
                    <path d="M95.705,8.38607243 L96.586,8.38607243 L96.586,10.8520966 L96.656,10.8520966 C96.874,10.3511388 97.35,10.0509618 98.029,10.0509618 C98.988,10.0509618 99.58,10.6552918 99.58,11.719827 L99.58,14.6092797 L98.69,14.6092797 L98.69,11.937505 C98.69,11.2228451 98.355,10.8600483 97.727,10.8600483 C96.999,10.8600483 96.593,11.3172716 96.593,11.9951549 L96.593,14.6092797 L95.705,14.6092797 L95.705,8.38607243" id="Fill-26" fill="#FFFFFE"></path>
                    <path d="M101.635,11.9583783 L103.91,11.9583783 C103.889,11.2556459 103.459,10.7984225 102.801,10.7984225 C102.144,10.7984225 101.685,11.2596217 101.635,11.9583783 Z M104.761,13.4006197 C104.559,14.2027485 103.839,14.6957545 102.81,14.6957545 C101.52,14.6957545 100.73,13.8160966 100.73,12.3847887 C100.73,10.9544748 101.537,10.0469859 102.806,10.0469859 C104.059,10.0469859 104.815,10.8978189 104.815,12.3032837 L104.815,12.6114125 L101.635,12.6114125 L101.635,12.6611107 C101.665,13.4453481 102.124,13.9433239 102.834,13.9433239 C103.373,13.9433239 103.741,13.749501 103.906,13.4006197 L104.761,13.4006197 L104.761,13.4006197 Z" id="Fill-27" fill="#FFFFFE"></path>
                </g>
            </g>
        </g>
    </g>
</svg>