<?xml version="1.0" encoding="UTF-8"?>
<svg width="24px" height="24px" viewBox="0 0 24 24" version="1.1" xmlns="http://www.w3.org/2000/svg" xmlns:xlink="http://www.w3.org/1999/xlink">
    <title>sticky_note_2_black_24dp</title>
    <g id="Page-1" stroke="none" stroke-width="1" fill="none" fill-rule="evenodd">
        <g id="Crictracker_Home_28Jul2021_Fantasy_tips" transform="translate(-437.000000, -520.000000)">
            <g id="Group-124" transform="translate(405.000000, 508.000000)">
                <g id="sticky_note_2_black_24dp" transform="translate(32.000000, 12.000000)">
                    <rect id="Rectangle" x="0" y="0" width="24" height="24"></rect>
                    <path d="M19,5 L19,14 L14,14 L14,19 L5,19 L5,5 L19,5 M19,3 L5,3 C3.9,3 3,3.9 3,5 L3,19 C3,20.1 3.9,21 5,21 L15,21 L21,15 L21,5 C21,3.9 20.1,3 19,3 Z M12,14 L7,14 L7,12 L12,12 L12,14 Z M17,10 L7,10 L7,8 L17,8 L17,10 Z" id="Shape" fill="#50555D" fill-rule="nonzero"></path>
                </g>
            </g>
        </g>
    </g>
</svg>