<?xml version="1.0" encoding="UTF-8"?>
<svg width="28px" height="27px" viewBox="0 0 28 27" version="1.1" xmlns="http://www.w3.org/2000/svg" xmlns:xlink="http://www.w3.org/1999/xlink">
    <title>clap</title>
    <defs>
        <polygon id="path-1" points="0.00870241955 0.00911458333 3.75344468 0.00911458333 3.75344468 4.08005208 0.00870241955 4.08005208"></polygon>
        <polygon id="path-3" points="0.0021875 0.0232679969 4.31871373 0.0232679969 4.31871373 3.58746354 0.0021875 3.58746354"></polygon>
    </defs>
    <g id="Page-1" stroke="none" stroke-width="1" fill="none" fill-rule="evenodd">
        <g id="Crictracker_Article_detail_Video_25Aug2021" transform="translate(-102.000000, -287.000000)">
            <g id="Group-97" transform="translate(92.000000, 276.000000)">
                <g id="clap" transform="translate(10.000000, 11.000000)">
                    <path d="M8.22649479,12.6576406 C8.10519792,12.6576406 7.98390104,12.611375 7.89136979,12.5188437 L6.03647917,10.6639531 C5.34027083,9.96774479 5.34027083,8.83498437 6.03647917,8.13877604 C6.7326875,7.44256771 7.86544792,7.44256771 8.56165625,8.13877604 L10.7256771,10.3028333 C10.910776,10.4878958 10.910776,10.7880208 10.7256771,10.9730833 C10.5405781,11.1582187 10.240526,11.1582187 10.0553906,10.9730833 L7.89136979,8.8090625 C7.56477604,8.48246875 7.03335937,8.48246875 6.70676562,8.8090625 C6.54955729,8.96623437 6.46300521,9.17659896 6.46300521,9.40136458 C6.46300521,9.62613021 6.54955729,9.83649479 6.70676562,9.99366667 L8.56165625,11.8485573 C8.74671875,12.0336562 8.74671875,12.3337448 8.56165625,12.5188437 C8.46908854,12.611375 8.34779167,12.6576406 8.22649479,12.6576406" id="Fill-10" fill="#1B1A19"></path>
                    <path d="M14.7186302,15.4399948 C14.5972969,15.4399948 14.4760365,15.3937292 14.3834688,15.3011615 L9.74626042,10.6639531 C9.05005208,9.96774479 9.05005208,8.83498437 9.74626042,8.13877604 C10.4424688,7.44256771 11.5752292,7.44256771 12.2714375,8.13877604 L17.5269427,13.3943177 C17.7120417,13.5793802 17.7120417,13.8795052 17.5269427,14.0645677 C17.3418438,14.2496667 17.0417552,14.2496667 16.8566563,14.0645677 L11.601151,8.8090625 C11.2745573,8.48246875 10.7431406,8.48246875 10.4165469,8.8090625 C10.0899531,9.13565625 10.0899531,9.66707292 10.4165469,9.99366667 L15.0537552,14.6309115 C15.2388542,14.815974 15.2388542,15.116099 15.0537552,15.3011615 C14.9611875,15.3937292 14.8399271,15.4399948 14.7186302,15.4399948" id="Fill-11" fill="#1B1A19"></path>
                    <path d="M11.008849,19.149776 C10.8875521,19.149776 10.7662552,19.1035104 10.6736875,19.0109427 L5.41818229,13.7554375 C4.72197396,13.0592292 4.72197396,11.9264688 5.41818229,11.2302604 C6.11439062,10.5340521 7.24715104,10.5340521 7.94335937,11.2302604 L13.1988646,16.4857656 C13.3839635,16.6708646 13.3839635,16.9709896 13.1988646,17.1560521 C13.0137656,17.341151 12.7136771,17.341151 12.5285781,17.1560521 L7.27307292,11.9005469 C6.94647917,11.5739531 6.4150625,11.5739531 6.08846875,11.9005469 C5.761875,12.2271406 5.761875,12.7585573 6.08846875,13.085151 L11.343974,18.3406563 C11.5290729,18.5257552 11.5290729,18.8258802 11.343974,19.0109427 C11.2514427,19.1035104 11.1301458,19.149776 11.008849,19.149776" id="Fill-12" fill="#1B1A19"></path>
                    <path d="M17.1917812,26.3227708 C15.3910312,26.3227708 13.5903177,25.6373542 12.2194479,24.2664844 L5.41818229,17.4652188 C5.08196354,17.129 4.89679167,16.680599 4.89679167,16.2026302 C4.89679167,15.7246615 5.08196354,15.2762604 5.41818229,14.9400417 C5.75440104,14.6038229 6.20280208,14.418651 6.68077083,14.418651 C7.15873958,14.418651 7.60714062,14.6038229 7.94335937,14.9400417 C8.12842187,15.1251406 8.12842187,15.4252292 7.94335937,15.6103281 C7.75826042,15.7954271 7.45817187,15.7954271 7.27307292,15.6103281 C6.94647917,15.2837344 6.4150625,15.2837344 6.08846875,15.6103281 C5.761875,15.9369219 5.761875,16.4683385 6.08846875,16.7949323 L12.8897344,23.5961979 C15.2618958,25.9683229 19.1217396,25.9683958 21.493901,23.5961979 C22.6430312,22.4470677 23.275875,20.9192083 23.275875,19.2941146 C23.275875,17.6689844 22.6430312,16.1411615 21.493901,14.9920313 L17.4749531,10.9730833 C17.3993021,10.8974688 17.29875,10.8557969 17.1918177,10.8557969 C17.084849,10.8557969 16.9842969,10.8974688 16.9086458,10.9730833 C16.4115729,11.4701563 16.4115729,12.2789479 16.9086458,12.7760208 L19.6909635,15.5583385 C19.8760625,15.7434375 19.8760625,16.043526 19.6909635,16.228625 C19.5058646,16.413724 19.2058125,16.413724 19.0207135,16.228625 L16.2383594,13.4462708 C15.3717083,12.5796198 15.3717083,11.1694844 16.2383594,10.3028333 C16.7640885,9.77710417 17.6195104,9.77710417 18.1452396,10.3028333 L22.164151,14.3217448 C23.4923281,15.6499219 24.2237917,17.4157813 24.2237917,19.2940781 C24.2237917,21.1724115 23.4923281,22.9382708 22.164151,24.2664479 C20.7932812,25.6373542 18.9925312,26.3227708 17.1917812,26.3227708" id="Fill-13" fill="#1B1A19"></path>
                    <path d="M14.137776,8.60274479 C14.0164427,8.60274479 13.8951823,8.55647917 13.8026146,8.46394792 L11.6385937,6.29989063 C11.312,5.97329688 10.7805469,5.97329688 10.4539531,6.29989063 C10.1273594,6.62648438 10.1273594,7.15790104 10.4539531,7.48449479 L10.7256771,7.75618229 C10.910776,7.94128125 10.910776,8.24136979 10.7257135,8.42646875 C10.5405781,8.61156771 10.2404896,8.61156771 10.0554271,8.42650521 L9.78370312,8.15481771 C9.08749479,7.45857292 9.08749479,6.3258125 9.78370312,5.62960417 C10.479875,4.93343229 11.6126719,4.93343229 12.3088437,5.62960417 L14.472901,7.79366146 C14.658,7.97876042 14.658,8.27884896 14.472901,8.46394792 C14.3803333,8.55647917 14.2590729,8.60274479 14.137776,8.60274479" id="Fill-14" fill="#1B1A19"></path>
                    <path d="M20.9390052,11.6942292 C20.8177083,11.6942292 20.6964479,11.6479635 20.6038802,11.5554323 L15.348375,6.29989063 C15.0217813,5.97329688 14.4903281,5.97329688 14.1637344,6.29989063 C13.8371406,6.62648438 13.8371406,7.15790104 14.1637344,7.48449479 L16.9348958,10.2556563 C17.1199583,10.4407188 17.1199583,10.7408438 16.9348958,10.9259063 C16.7497969,11.1110417 16.4497083,11.1110417 16.2646094,10.9259063 L13.4934844,8.15478125 C12.797276,7.45857292 12.797276,6.3258125 13.4934844,5.62960417 C14.1896563,4.93343229 15.3224531,4.93343229 16.018625,5.62960417 L21.2741667,10.8851458 C21.4592292,11.0702083 21.4592292,11.3703333 21.2741667,11.5554323 C21.181599,11.6479635 21.0603021,11.6942292 20.9390052,11.6942292" id="Fill-15" fill="#1B1A19"></path>
                    <path d="M22.4876458,23.6324375 C22.2738542,23.6324375 22.0798594,23.4868229 22.0273594,23.2698594 C21.9657813,23.0154531 22.1221146,22.7592969 22.3765208,22.6977188 C23.45875,22.4358021 24.4492865,21.8788281 25.2410885,21.087026 C27.6132865,18.7148646 27.6132865,14.8550208 25.2410885,12.4828594 L21.2221771,8.46394792 C21.0660625,8.30779688 20.8119844,8.30779688 20.6558698,8.46394792 C20.1587969,8.96098438 20.1587969,9.76977604 20.6558698,10.266849 L23.4381875,13.0491667 C23.6232865,13.2342656 23.6232865,13.5343542 23.4381875,13.7194531 C23.2530885,13.9045521 22.9530365,13.9045521 22.767901,13.7194531 L19.9855833,10.9371354 C19.1189323,10.0704844 19.1189323,8.6603125 19.9855833,7.79366146 C20.5113125,7.26793229 21.3667344,7.26793229 21.8924635,7.79366146 L25.911375,11.8125729 C27.2395521,13.14075 27.9710156,14.9066458 27.9710156,16.7849427 C27.9710156,18.6632396 27.2395521,20.4291354 25.911375,21.757276 C24.9963438,22.6723073 23.8511146,23.316125 22.5995,23.6190208 C22.5620573,23.628099 22.5245417,23.6324375 22.4876458,23.6324375" id="Fill-16" fill="#1B1A19"></path>
                    <path d="M8.68678125,4.78767187 C8.52523437,4.78767187 8.36773437,4.70502083 8.27910417,4.55608854 L7.35550521,3.00467708 C7.22159375,2.77976562 7.29538542,2.48886458 7.52033333,2.35498958 C7.74524479,2.22111458 8.03614583,2.29486979 8.17002083,2.51978125 L9.09358333,4.07119271 C9.22749479,4.29610417 9.15370312,4.58696875 8.92879167,4.72088021 C8.8528125,4.766125 8.76925,4.78767187 8.68678125,4.78767187" id="Fill-17" fill="#1B1A19"></path>
                    <g id="Group-21" transform="translate(9.479167, 0.000000)">
                        <mask id="mask-2" fill="white">
                            <use xlink:href="#path-1"></use>
                        </mask>
                        <g id="Clip-19"></g>
                        <path d="M3.27924479,3.59781771 C3.02436458,3.59781771 2.81385417,3.39536458 2.80576042,3.13880729 L2.74884896,1.33419271 C2.74060938,1.07253125 2.94601563,0.85378125 3.20764063,0.845505208 C3.46897396,0.837046875 3.68801562,1.04267187 3.69629167,1.30429687 L3.75320313,3.10891146 C3.76147917,3.37053646 3.55607292,3.58932292 3.29444792,3.59759896 C3.28934375,3.59774479 3.28427604,3.59781771 3.27924479,3.59781771" id="Fill-18" fill="#1B1A19" mask="url(#mask-2)"></path>
                        <path d="M1.20997917,4.08005208 C0.994619792,4.08005208 0.799786458,3.93228646 0.748817708,3.71353646 L0.0211822917,0.590770833 C-0.0382447917,0.335817708 0.120276042,0.0810104167 0.375192708,0.0216197917 C0.630109375,-0.0379166667 0.884953125,0.12075 0.94434375,0.375630208 L1.67197917,3.49839583 C1.73136979,3.75334896 1.57288542,4.00815625 1.31796875,4.06754688 C1.28176562,4.07600521 1.24559896,4.08005208 1.20997917,4.08005208" id="Fill-20" fill="#1B1A19" mask="url(#mask-2)"></path>
                    </g>
                    <path d="M1.96896875,15.2295208 C1.75298958,15.2295208 1.55779167,15.0809167 1.50744271,14.8614375 C1.44892708,14.6063021 1.60828646,14.3520417 1.86342188,14.293526 L3.62322917,13.8897865 C3.87825521,13.8313438 4.13266146,13.9906302 4.19117708,14.2458021 C4.24969271,14.5009375 4.09033333,14.7551979 3.83519792,14.8137135 L2.07539063,15.2174167 C2.03973438,15.2256198 2.00407813,15.2295208 1.96896875,15.2295208" id="Fill-22" fill="#1B1A19"></path>
                    <g id="Group-26" transform="translate(0.000000, 9.114583)">
                        <mask id="mask-4" fill="white">
                            <use xlink:href="#path-3"></use>
                        </mask>
                        <g id="Clip-24"></g>
                        <path d="M3.84485938,1.47025521 C3.80151042,1.47025521 3.75743229,1.46423958 3.71368229,1.45169792 L1.97844792,0.952838542 C1.72688542,0.880505208 1.5815625,0.61796875 1.65389583,0.366369792 C1.72619271,0.114807292 1.98880208,-0.0304427083 2.24036458,0.0418177083 L3.97559896,0.540640625 C4.22716146,0.612973958 4.37244792,0.875546875 4.30015104,1.12710937 C4.24039583,1.33492188 4.0508125,1.47025521 3.84485938,1.47025521" id="Fill-23" fill="#1B1A19" mask="url(#mask-4)"></path>
                        <path d="M3.67000521,3.58746354 C3.65688021,3.58746354 3.64371875,3.58691667 3.63041146,3.58582292 L0.434911458,3.32146354 C0.174052083,3.29988021 -0.0199427083,3.07092188 0.001640625,2.8100625 C0.0232239583,2.54920313 0.252255208,2.35535417 0.513041667,2.37679167 L3.70854167,2.64115104 C3.9694375,2.66269792 4.16339583,2.89169271 4.1418125,3.15255208 C4.12135937,3.40014062 3.91405729,3.58746354 3.67000521,3.58746354" id="Fill-25" fill="#1B1A19" mask="url(#mask-4)"></path>
                    </g>
                </g>
            </g>
        </g>
    </g>
</svg>