<?xml version="1.0" encoding="UTF-8"?>
<svg width="32px" height="32px" viewBox="0 0 32 32" version="1.1" xmlns="http://www.w3.org/2000/svg" xmlns:xlink="http://www.w3.org/1999/xlink">
    <title>facebook</title>
    <g id="Page-1" stroke="none" stroke-width="1" fill="none" fill-rule="evenodd">
        <g id="Crictracker_Home_28Jul2021_Article" transform="translate(-1109.000000, -8309.000000)" fill="#F2F4F7">
            <g id="Group-93" transform="translate(0.000000, 7839.000000)">
                <g id="Group-79" transform="translate(1109.000000, 470.000000)">
                    <g id="facebook" transform="translate(0.000000, 0.000000)">
                        <path d="M15.8861593,0 C24.6598428,0 31.7723186,7.11247578 31.7723186,15.8861593 C31.7723186,24.6598428 24.6598428,31.7723186 15.8861593,31.7723186 C7.11247578,31.7723186 0,24.6598428 0,15.8861593 C0,7.11247578 7.11247578,0 15.8861593,0 Z M16.823269,8.528 C13.8677161,8.528 13.1961504,10.5692278 13.1961504,11.872781 L13.1961504,11.872781 L13.1961504,13.6956571 L11.4863009,13.6956571 L11.4863009,16.5125908 L13.1961504,16.5125908 L13.1961504,24.528 L16.7912671,24.528 L16.7912671,16.5125908 L19.1641485,16.5125908 L19.4782411,13.6982799 L16.7915042,13.6982799 L16.7915042,12.0404244 C16.7915042,11.4185919 17.2371602,11.272587 17.5540975,11.272587 L17.5540975,11.272587 L19.4863009,11.272587 L19.4863009,8.5382728 Z" id="Combined-Shape"></path>
                    </g>
                </g>
            </g>
        </g>
    </g>
</svg>