<?xml version="1.0" encoding="UTF-8"?>
<svg width="24px" height="24px" viewBox="0 0 24 24" version="1.1" xmlns="http://www.w3.org/2000/svg" xmlns:xlink="http://www.w3.org/1999/xlink">
    <title>tips_and_updates_black_24dp</title>
    <g id="Page-1" stroke="none" stroke-width="1" fill="none" fill-rule="evenodd">
        <g id="Crictracker_Home_28Jul2021_Article" transform="translate(-595.000000, -521.000000)">
            <g id="Group-124" transform="translate(405.000000, 509.000000)">
                <g id="tips_and_updates_black_24dp" transform="translate(190.000000, 12.000000)">
                    <rect id="Rectangle" x="0" y="0" width="24" height="24"></rect>
                    <path d="M7,20 L11,20 C11,21.1 10.1,22 9,22 C7.9,22 7,21.1 7,20 Z M5,19 L13,19 L13,17 L5,17 L5,19 Z M16.5,9.5 C16.5,13.32 13.84,15.36 12.73,16 L5.27,16 C4.16,15.36 1.5,13.32 1.5,9.5 C1.5,5.36 4.86,2 9,2 C13.14,2 16.5,5.36 16.5,9.5 Z M21.37,7.37 L20,8 L21.37,8.63 L22,10 L22.63,8.63 L24,8 L22.63,7.37 L22,6 L21.37,7.37 Z M19,6 L19.94,3.94 L22,3 L19.94,2.06 L19,0 L18.06,2.06 L16,3 L18.06,3.94 L19,6 Z" id="Shape" fill="#50555D" fill-rule="nonzero"></path>
                </g>
            </g>
        </g>
    </g>
</svg>