<?xml version="1.0" encoding="UTF-8"?>
<svg width="14px" height="18px" viewBox="0 0 14 18" version="1.1" xmlns="http://www.w3.org/2000/svg" xmlns:xlink="http://www.w3.org/1999/xlink">
    <title>Shape</title>
    <g id="Page-1" stroke="none" stroke-width="1" fill="none" fill-rule="evenodd">
        <g id="Crictracker_Home_28Jul2021_Article" transform="translate(-79.000000, -1018.000000)" fill="#045DE9" fill-rule="nonzero">
            <g id="ic_trending" transform="translate(74.000000, 1015.000000)">
                <path d="M18.5481257,12.5281156 C17.1740587,8.94652868 12.28168,8.75340389 13.4632025,3.54781308 C13.5507227,3.16156351 13.1393778,2.86309793 12.8068011,3.06500112 C9.62981815,4.94357858 7.34554114,8.7095119 9.26223334,13.6429723 C9.41976969,14.0467787 8.94716065,14.4242499 8.6058319,14.1608979 C7.02171643,12.9582572 6.85542807,11.2289125 6.99546037,9.9911582 C7.04797249,9.53468144 6.45283518,9.31522145 6.19902663,9.69269262 C5.60388932,10.6056462 5,12.0804172 5,14.3013523 C5.33257673,19.2172559 9.4722818,20.7271406 10.9601251,20.9202654 C13.0868657,21.1923958 15.3886468,20.7973678 17.0427784,19.2787047 C18.8631984,17.5844736 19.5283518,14.8807266 18.5481257,12.5281156 Z M10.4262519,16.9436505 C11.6865427,16.6364065 12.3341921,15.723453 12.5092325,14.9158402 C12.7980491,13.6605291 11.6690386,12.4315532 12.4304643,10.447635 C12.7192809,12.0891956 15.2923746,13.1162684 15.2923746,14.9070618 C15.3623907,17.1279969 12.9643375,19.0329095 10.4262519,16.9436505 Z" id="Shape"></path>
            </g>
        </g>
    </g>
</svg>