<?xml version="1.0" encoding="UTF-8"?>
<svg width="135px" height="40px" viewBox="0 0 135 40" version="1.1" xmlns="http://www.w3.org/2000/svg" xmlns:xlink="http://www.w3.org/1999/xlink">
    <title>Group 73</title>
    <defs>
        <path d="M1.38651537,12.6983347 C1.04187864,12.6983347 0.742064618,12.5867639 0.506994484,12.3774453 L0.506994484,12.3764579 C0.742064618,12.5867639 1.0428747,12.6983347 1.38751143,12.6983347 C1.41739322,12.6983347 1.44827108,12.6973474 1.47914894,12.6953727 C1.44827108,12.6973474 1.41739322,12.6983347 1.38651537,12.6983347 Z M1.38751143,12.5532005 C1.0428747,12.5541813 0.742064618,12.4426105 0.506994484,12.2323046 L12.8471805,0 L16.9609078,4.07875132 L2.5030985,12.222431 C2.10367849,12.4475473 1.72417967,12.5532005 1.38751143,12.5532005 Z M0.504006304,12.3744832 C0.482092987,12.3547362 0.460179669,12.3340018 0.439262411,12.3122801 L0.504006304,12.3744832 Z" id="path-1"></path>
        <linearGradient x1="86.7305721%" y1="31.0054183%" x2="-50.4750708%" y2="-73.5272479%" id="linearGradient-3">
            <stop stop-color="#FF3A44" offset="0%"></stop>
            <stop stop-color="#C21161" offset="100%"></stop>
        </linearGradient>
        <path d="M12.8471805,12.8355767 L0.505998424,0.603272103 C0.741068558,0.393953468 1.04088258,0.282382686 1.38551931,0.282382686 C1.72318361,0.282382686 2.10268243,0.389016708 2.5030985,0.615120327 L16.9609078,8.75781269 L12.8471805,12.8355767 Z M17.0535414,8.66598894 L2.5030985,0.470966928 C2.10268243,0.244863308 1.72318361,0.138229287 1.38551931,0.138229287 C1.38452325,0.138229287 1.38253113,0.138229287 1.38153507,0.138229287 C1.38253113,0.138229287 1.38452325,0.138229287 1.38651537,0.138229287 C1.72417967,0.138229287 2.10268243,0.244863308 2.5030985,0.469979576 L17.0535414,8.66500159 L17.0535414,8.66598894 Z" id="path-4"></path>
        <linearGradient x1="-19.3264311%" y1="-11.3273548%" x2="41.8455426%" y2="-57.8558019%" id="linearGradient-6">
            <stop stop-color="#31A06F" offset="0%"></stop>
            <stop stop-color="#00EF74" offset="100%"></stop>
        </linearGradient>
        <path d="M0.120523247,4.17057506 L0.0278896769,4.07875132 L4.99424429,1.28158296 C5.62574626,0.926136223 5.97934752,0.468004872 6.03811505,0.0019747041 C6.03811505,0.172786609 6.00026478,0.344585866 5.92356816,0.51046101 C5.76917888,0.847148059 5.45940426,1.16408807 4.99424429,1.42573636 L0.120523247,4.17057506 Z" id="path-7"></path>
        <linearGradient x1="112.800795%" y1="-0.0378967314%" x2="-288.210143%" y2="-0.0378967314%" id="linearGradient-9">
            <stop stop-color="#DEC300" offset="0%"></stop>
            <stop stop-color="#DE8900" offset="100%"></stop>
        </linearGradient>
        <path d="M6.03811505,4.93676025 C5.97934752,4.46875538 5.62574626,4.01062403 4.99424429,3.65616464 L0.0278896769,0.858996284 L0.120523247,0.767172543 L4.99424429,3.51201124 C5.69049015,3.90399001 6.03811505,4.42037513 6.03811505,4.93676025 Z" id="path-10"></path>
        <linearGradient x1="112.800795%" y1="100.009472%" x2="-288.210143%" y2="100.009472%" id="linearGradient-12">
            <stop stop-color="#FFE73F" offset="0%"></stop>
            <stop stop-color="#FFB43F" offset="100%"></stop>
        </linearGradient>
        <path d="M0.534884161,24.4646091 L0.461175729,24.3945071 C0.171322301,24.0904027 0,23.6184484 0,23.0072775 L0,23.1504435 L0,1.30922882 C0,1.31120352 0,1.31317823 0,1.31515293 L0,1.45930633 C0,0.797780457 0.200208038,0.298180319 0.533888101,0 L12.8750701,12.2323046 L0.534884161,24.4646091 Z M0,1.30824147 C0,1.2539371 0.00199211978,1.20062009 0.00398423956,1.14927779 C0.00199211978,1.20062009 0,1.2539371 0,1.30824147 Z M0.00498029945,1.14631573 C0.00498029945,1.14631573 0.00498029945,1.14532838 0.00498029945,1.14434103 C0.00498029945,1.14532838 0.00498029945,1.14631573 0.00498029945,1.14631573 Z M0.00498029945,1.13940427 L0.00498029945,1.13841691 L0.00498029945,1.13940427 Z" id="path-13"></path>
        <linearGradient x1="61.4950808%" y1="4.43013964%" x2="25.5354562%" y2="-63.3013157%" id="linearGradient-15">
            <stop stop-color="#00A0FF" offset="0%"></stop>
            <stop stop-color="#00E2FF" offset="100%"></stop>
        </linearGradient>
        <path d="M5.00719307,9.16065232 L5.1008227,9.10733531 L9.97454374,6.36249661 C10.4397037,6.10084832 10.7494783,5.78390831 10.9038676,5.44722126 C10.7494783,5.78390831 10.4397037,6.10084832 9.97454374,6.36348396 L5.1008227,9.10832266 L5.00719307,9.16065232 Z M5.00818913,9.01551157 L0.894461781,4.93676025 L5.00818913,0.858996284 L9.97454374,3.65616464 C10.6060457,4.01062403 10.959647,4.46875538 11.0184145,4.93676025 C11.0184145,4.93676025 11.0184145,4.9377476 11.0184145,4.93873496 C10.959647,5.40476512 10.6060457,5.86289647 9.97454374,6.21834321 L5.00818913,9.01551157 Z" id="path-16"></path>
        <linearGradient x1="107.59937%" y1="49.1246432%" x2="-130.466352%" y2="49.1246432%" id="linearGradient-18">
            <stop stop-color="#FFDE00" offset="0%"></stop>
            <stop stop-color="#FF9C00" offset="100%"></stop>
        </linearGradient>
    </defs>
    <g id="Page-1" stroke="none" stroke-width="1" fill="none" fill-rule="evenodd">
        <g id="Crictracker_Home_28Jul2021_Article" transform="translate(-216.000000, -8305.000000)">
            <g id="Group-93" transform="translate(0.000000, 7839.000000)">
                <g id="Group" transform="translate(76.000000, 466.000000)">
                    <g id="Group-73" transform="translate(140.000000, 0.000000)">
                        <g id="Group-25">
                            <path d="M129.487786,39.494082 L4.98029945,39.494082 C2.24113475,39.494082 0,37.2725399 0,34.5573218 L0,4.93676025 C0,2.22154211 2.24113475,0 4.98029945,0 L129.487786,0 C132.22695,0 134.468085,2.22154211 134.468085,4.93676025 L134.468085,34.5573218 C134.468085,37.2725399 132.22695,39.494082 129.487786,39.494082 Z" id="Fill-1" fill="#000000"></path>
                            <path d="M129.487786,0.00098735205 L4.98029945,0.00098735205 C2.24113475,0.00098735205 0,2.22252947 0,4.93676025 L0,34.5583091 C0,37.2725399 2.24113475,39.4950694 4.98029945,39.4950694 L129.487786,39.4950694 C132.22695,39.4950694 134.468085,37.2725399 134.468085,34.5583091 L134.468085,4.93676025 C134.468085,2.22252947 132.22695,0.00098735205 129.487786,0.00098735205 Z M129.487786,0.78988164 C131.79466,0.78988164 133.671237,2.65104025 133.671237,4.93676025 L133.671237,34.5583091 C133.671237,36.8440291 131.79466,38.7051877 129.487786,38.7051877 L4.98029945,38.7051877 C2.67342474,38.7051877 0.796847912,36.8440291 0.796847912,34.5583091 L0.796847912,4.93676025 C0.796847912,2.65104025 2.67342474,0.78988164 4.98029945,0.78988164 L129.487786,0.78988164 Z" id="Fill-2" fill="#A6A6A6"></path>
                            <path d="M47.2311678,10.1144344 C47.2311678,10.9418354 46.984145,11.6003992 46.4891032,12.0921006 C45.9263294,12.6756256 45.1942254,12.9678818 44.2937872,12.9678818 C43.4311994,12.9678818 42.6971032,12.6716762 42.094487,12.079265 C41.4898786,11.4858664 41.1890686,10.7512765 41.1890686,9.8735205 C41.1890686,8.99675188 41.4898786,8.26216196 42.094487,7.66876337 C42.6971032,7.07536479 43.4311994,6.77915918 44.2937872,6.77915918 C44.7210969,6.77915918 45.1314736,6.86209675 45.519937,7.02797189 C45.9093964,7.19384704 46.2211631,7.41402655 46.4552372,7.68949777 L45.9293176,8.21081965 C45.5338818,7.74182743 44.989037,7.50782499 44.2937872,7.50782499 C43.6642774,7.50782499 43.1204287,7.72701714 42.6612451,8.16540146 C42.2020615,8.60378577 41.9729677,9.1734879 41.9729677,9.8735205 C41.9729677,10.5745405 42.2020615,11.1442426 42.6612451,11.5826269 C43.1204287,12.0210112 43.6642774,12.2402034 44.2937872,12.2402034 C44.9611474,12.2402034 45.5169488,12.0200239 45.9631836,11.5786775 C46.252041,11.291358 46.419379,10.8914805 46.4632057,10.3790448 L44.2937872,10.3790448 L44.2937872,9.66716392 L47.1893333,9.66716392 C47.217223,9.8221782 47.2311678,9.970281 47.2311678,10.1144344 Z" id="Fill-3" fill="#FFFFFF"></path>
                            <path d="M47.2311678,10.1144344 L47.1315619,10.1144344 C47.1305658,10.9230757 46.8925075,11.5500443 46.418383,12.0219986 L46.4173869,12.0229859 L46.4173869,12.0239733 C45.8725422,12.5877513 45.1733081,12.8681593 44.2937872,12.8691466 C43.4541087,12.8681593 42.7508905,12.5847892 42.1642112,12.009163 C41.578528,11.4325494 41.2896706,10.7285674 41.2886745,9.8735205 C41.2896706,9.01847363 41.578528,8.31547897 42.1642112,7.73886537 C42.7508905,7.16323912 43.4541087,6.87888173 44.2937872,6.87789438 C44.7081481,6.87789438 45.1035839,6.9578699 45.4810906,7.11880828 C45.8585973,7.27974667 46.1564192,7.49104 46.3785406,7.7526883 L46.4552372,7.68949777 L46.3845169,7.61939577 L45.8595934,8.14071765 L45.9293176,8.21081965 L46.0060142,8.14762912 C45.5916533,7.65494045 45.0109504,7.40711508 44.2937872,7.40908978 C43.6403719,7.40810243 43.0666414,7.63914281 42.5925169,8.09431211 C42.1124161,8.55145611 41.8723656,9.15275351 41.8733617,9.8735205 C41.8723656,10.5952749 42.1124161,11.1965722 42.5925169,11.6537162 C43.0666414,12.1088855 43.6403719,12.3399259 44.2937872,12.3389386 C44.9830607,12.3399259 45.570736,12.1078982 46.0329078,11.6487795 C46.3416864,11.341713 46.5169929,10.9161643 46.5628117,10.3869436 L46.5727723,10.2803095 L44.3933932,10.2803095 L44.3933932,9.76589913 L47.1893333,9.76589913 L47.1893333,9.66716392 L47.0917195,9.68493626 C47.1186131,9.83402642 47.1315619,9.97620512 47.1315619,10.1144344 L47.3307767,10.1144344 C47.3307767,9.96435689 47.316829,9.80934262 47.2869472,9.64939159 L47.2730024,9.56842872 L44.1941812,9.56842872 L44.1941812,10.3790448 L44.1941812,10.47778 L46.4632057,10.47778 L46.4632057,10.3790448 L46.3645957,10.3701586 C46.3207691,10.8667967 46.1613995,11.2410031 45.8924634,11.5085755 C45.4641576,11.9311622 44.939234,12.1404808 44.2937872,12.1414682 C43.6871868,12.1404808 43.1742159,11.9341242 42.7309693,11.5115376 C42.2917069,11.0909256 42.0735697,10.5538061 42.0725737,9.8735205 C42.0735697,9.19422229 42.2917069,8.65710278 42.7309693,8.2364908 C43.1742159,7.81390413 43.6871868,7.60754755 44.2937872,7.60656019 C44.9671237,7.60754755 45.4751143,7.82871441 45.853617,8.27401018 L45.9233412,8.35694775 L46.5249614,7.75959976 L46.5897053,7.69542188 L46.5309377,7.62630724 C46.285907,7.33701309 45.9601954,7.10794741 45.5597794,6.9371355 C45.1583672,6.7663236 44.7340457,6.68042161 44.2937872,6.68042161 C43.4072939,6.67943662 42.643316,6.98847781 42.0237667,7.59866138 C41.4022254,8.20785759 41.0884665,8.97404278 41.0894602,9.8735205 C41.0884665,10.7729982 41.4022254,11.5391834 42.0237667,12.149367 C42.643316,12.7595505 43.40829,13.0676044 44.2937872,13.0666194 C45.2151426,13.0676044 45.9811127,12.7644873 46.5608195,12.1602279 L46.4891032,12.0921006 L46.5598235,12.1612152 C47.0757825,11.6507542 47.3317699,10.9596078 47.3307767,10.1144344 L47.2311678,10.1144344 Z" id="Fill-4" fill="#FFFFFF"></path>
                            <polygon id="Fill-5" fill="#FFFFFF" points="51.8220079 7.64013016 49.1007723 7.64013016 49.1007723 9.51807376 51.5550638 9.51807376 51.5550638 10.2299546 49.1007723 10.2299546 49.1007723 12.1078982 51.8220079 12.1078982 51.8220079 12.8355767 48.3328101 12.8355767 48.3328101 6.91146435 51.8220079 6.91146435"></polygon>
                            <polygon id="Fill-6" fill="#FFFFFF" points="51.8220079 7.64013016 51.8220079 7.54139496 49.0011663 7.54139496 49.0011663 9.61680897 51.4554578 9.61680897 51.4554578 10.1312194 49.0011663 10.1312194 49.0011663 12.2066334 51.7224019 12.2066334 51.7224019 12.7368414 48.4324161 12.7368414 48.4324161 7.01019956 51.7224019 7.01019956 51.7224019 7.64013016 51.8220079 7.64013016 51.8220079 7.54139496 51.8220079 7.64013016 51.9216139 7.64013016 51.9216139 6.81272915 48.2332041 6.81272915 48.2332041 12.9343119 51.9216139 12.9343119 51.9216139 12.009163 49.2003783 12.009163 49.2003783 10.3286898 51.6546698 10.3286898 51.6546698 9.41933856 49.2003783 9.41933856 49.2003783 7.73886537 51.9216139 7.73886537 51.9216139 7.64013016"></polygon>
                            <polygon id="Fill-7" fill="#FFFFFF" points="55.0601986 12.8355767 54.2922364 12.8355767 54.2922364 7.64013016 52.62284 7.64013016 52.62284 6.91146435 56.729595 6.91146435 56.729595 7.64013016 55.0601986 7.64013016"></polygon>
                            <polygon id="Fill-8" fill="#FFFFFF" points="55.0601986 12.8355767 55.0601986 12.7368414 54.3918424 12.7368414 54.3918424 7.54139496 52.722446 7.54139496 52.722446 7.01019956 56.629989 7.01019956 56.629989 7.54139496 54.9605926 7.54139496 54.9605926 12.8355767 55.0601986 12.8355767 55.0601986 12.7368414 55.0601986 12.8355767 55.1598046 12.8355767 55.1598046 7.73886537 56.8292009 7.73886537 56.8292009 6.81272915 52.523234 6.81272915 52.523234 7.64013016 52.523234 7.73886537 54.1926304 7.73886537 54.1926304 12.9343119 55.1598046 12.9343119 55.1598046 12.8355767"></polygon>
                            <polygon id="Fill-9" fill="#FFFFFF" points="59.7018377 12.8355767 60.4688038 12.8355767 60.4688038 6.91146435 59.7018377 6.91146435"></polygon>
                            <polygon id="Fill-10" fill="#FFFFFF" points="59.7018377 12.8355767 59.8014437 12.8355767 59.8014437 7.01019956 60.3691978 7.01019956 60.3691978 12.7368414 59.7018377 12.7368414 59.7018377 12.8355767 59.8014437 12.8355767 59.7018377 12.8355767 59.7018377 12.9343119 60.5684098 12.9343119 60.5684098 6.81272915 59.7018377 6.81272915 59.6022317 6.81272915 59.6022317 12.9343119 59.7018377 12.9343119"></polygon>
                            <polygon id="Fill-11" fill="#FFFFFF" points="63.8753286 12.8355767 63.1063704 12.8355767 63.1063704 7.64013016 61.4379701 7.64013016 61.4379701 6.91146435 65.544725 6.91146435 65.544725 7.64013016 63.8753286 7.64013016"></polygon>
                            <polygon id="Fill-12" fill="#FFFFFF" points="63.8753286 12.8355767 63.8753286 12.7368414 63.2059764 12.7368414 63.2059764 7.54139496 61.537576 7.54139496 61.537576 7.01019956 65.445119 7.01019956 65.445119 7.54139496 63.7757226 7.54139496 63.7757226 12.8355767 63.8753286 12.8355767 63.8753286 12.7368414 63.8753286 12.8355767 63.9749346 12.8355767 63.9749346 7.73886537 65.644331 7.73886537 65.644331 6.81272915 61.3383641 6.81272915 61.3383641 7.64013016 61.3383641 7.73886537 63.0067644 7.73886537 63.0067644 12.9343119 63.9749346 12.9343119 63.9749346 12.8355767"></polygon>
                            <path d="M69.504063,11.5747281 C69.9463136,12.0180492 70.4871742,12.2402034 71.1276407,12.2402034 C71.7671111,12.2402034 72.3089677,12.0180492 72.7512183,11.5747281 C73.1934689,11.1304197 73.4155902,10.5636796 73.4155902,9.8735205 C73.4155902,9.18434877 73.1934689,8.61760869 72.7512183,8.17330027 C72.3089677,7.7299792 71.7671111,7.50782499 71.1276407,7.50782499 C70.4871742,7.50782499 69.9463136,7.7299792 69.504063,8.17330027 C69.0618125,8.61760869 68.8406872,9.18434877 68.8406872,9.8735205 C68.8406872,10.5636796 69.0618125,11.1304197 69.504063,11.5747281 Z M73.3189724,12.0703788 C72.7312971,12.6697015 72.0011852,12.9678818 71.1276407,12.9678818 C70.2540961,12.9678818 69.5229882,12.6697015 68.937305,12.0703788 C68.3496296,11.4720435 68.056788,10.7394283 68.056788,9.8735205 C68.056788,9.00761275 68.3496296,8.27598488 68.937305,7.67764954 C69.5229882,7.07832685 70.2540961,6.77915918 71.1276407,6.77915918 C71.9962049,6.77915918 72.7243247,7.08030155 73.3149882,7.68159895 C73.9046556,8.28289635 74.1994894,9.01353687 74.1994894,9.8735205 C74.1994894,10.7394283 73.9056517,11.4720435 73.3189724,12.0703788 Z" id="Fill-13" fill="#FFFFFF"></path>
                            <path d="M69.504063,11.5747281 L69.4333428,11.6438427 C69.8915303,12.1059235 70.4642648,12.3399259 71.1276407,12.3389417 C71.7910165,12.3399259 72.363751,12.1059235 72.8219385,11.6438427 C73.2831143,11.181762 73.5161923,10.584414 73.5151994,9.8735205 C73.5161923,9.16361438 73.2831143,8.56626639 72.8219385,8.10418563 C72.363751,7.64210487 71.7910165,7.40810243 71.1276407,7.40908667 C70.4642648,7.40810243 69.8915303,7.64210487 69.4333428,8.10418563 C68.9721671,8.56626639 68.7400851,9.16361438 68.741078,9.8735205 C68.7400851,10.584414 68.9721671,11.181762 69.4333428,11.6438427 L69.504063,11.5747281 L69.5747833,11.5046261 C69.1524539,11.0790774 68.9412892,10.5429452 68.9402931,9.8735205 C68.9412892,9.20508316 69.1524539,8.668951 69.5747833,8.24241492 L69.5747833,8.24340227 C70.0010969,7.81686618 70.5100835,7.60754755 71.1276407,7.60656019 C71.7442017,7.60754755 72.2541844,7.81686618 72.679502,8.24241492 L72.679502,8.24340227 C73.1038235,8.668951 73.3149882,9.20508316 73.3159842,9.8735205 C73.3149882,10.5429452 73.1038235,11.0790774 72.679502,11.5046261 C72.2541844,11.9311622 71.7442017,12.1404808 71.1276407,12.1414682 C70.5100835,12.1404808 70.0010969,11.9311622 69.5747833,11.5046261 L69.504063,11.5747281 Z M73.3189724,12.0703788 L73.2472561,12.0012642 C72.6765138,12.5818272 71.9782758,12.8681593 71.1276407,12.8691466 C70.2770055,12.8681593 69.5777715,12.5818272 69.0080252,12.0012642 L69.005037,11.9992895 L69.0080252,12.0012642 C68.438279,11.4197138 68.1573901,10.7177065 68.156394,9.8735205 C68.1573901,9.03032185 68.438279,8.32831454 69.0080252,7.74676419 C69.5777715,7.16620118 70.2770055,6.87888173 71.1276407,6.87789438 C71.9732955,6.87888173 72.6695414,7.16718853 73.2432719,7.75071359 C73.8160063,8.33522601 74.0988873,9.03525861 74.0998834,9.8735205 C74.0988873,10.7177065 73.8160063,11.4197138 73.2472561,12.0012642 L73.3189724,12.0703788 L73.3906887,12.1394935 C73.994301,11.5243731 74.3000914,10.7621373 74.2990978,9.8735205 C74.3000914,8.99082777 73.993305,8.23056669 73.3867045,7.61248431 C72.779108,6.99341457 72.0191143,6.67943662 71.1276407,6.68042164 C70.2311868,6.67943662 69.4682049,6.99143987 68.8655887,7.6085349 C68.2599842,8.22365523 67.956186,8.98589101 67.9571796,9.8735205 C67.956186,10.7621373 68.2599842,11.5243731 68.8655887,12.1394935 L68.8685768,12.1424555 L68.8655887,12.1394935 C69.4682049,12.7565885 70.2311868,13.0676044 71.1276407,13.0666194 C72.0240946,13.0676044 72.7860804,12.7565885 73.3906887,12.1394935 L73.3189724,12.0703788 Z" id="Fill-14" fill="#FFFFFF"></path>
                            <polygon id="Fill-15" fill="#FFFFFF" points="75.2772262 12.8355767 75.2772262 6.91146435 76.2115303 6.91146435 79.116041 11.5204237 79.148911 11.5204237 79.116041 10.3790448 79.116041 6.91146435 79.8849992 6.91146435 79.8849992 12.8355767 79.083171 12.8355767 76.0441923 8.00446307 76.0113223 8.00446307 76.0441923 9.14584204 76.0441923 12.8355767"></polygon>
                            <path d="M106.51466,29.6215489 L108.373308,29.6215489 L108.373308,17.2776735 L106.51466,17.2776735 L106.51466,29.6215489 Z M123.255439,21.7237198 L121.124867,27.0751679 L121.061119,27.0751679 L118.849866,21.7237198 L116.847786,21.7237198 L120.163669,29.2038989 L118.273147,33.3636131 L120.212476,33.3636131 L125.322263,21.7237198 L123.255439,21.7237198 Z M112.715133,28.2185216 C112.105545,28.2185216 111.256901,27.9173792 111.256901,27.1709411 C111.256901,26.2181463 112.314717,25.8528261 113.227108,25.8528261 C114.044873,25.8528261 114.428356,26.0275874 114.92539,26.2655392 C114.780961,27.4088929 113.78789,28.2185216 112.715133,28.2185216 Z M112.939247,21.4541727 C111.59357,21.4541727 110.200082,22.0416472 109.623363,23.3439645 L111.272838,24.0272121 C111.625444,23.3439645 112.281847,23.1218103 112.971121,23.1218103 C113.932318,23.1218103 114.909453,23.6934871 114.92539,24.7094724 L114.92539,24.8368408 C114.588722,24.6462819 113.868571,24.3599498 112.987058,24.3599498 C111.209091,24.3599498 109.398254,25.3285421 109.398254,27.1393458 C109.398254,28.7901984 110.856485,29.8545639 112.490024,29.8545639 C113.740079,29.8545639 114.428356,29.2986847 114.861642,28.6480197 L114.92539,28.6480197 L114.92539,29.6008145 L116.719294,29.6008145 L116.719294,24.8684361 C116.719294,22.6765145 115.069819,21.4541727 112.939247,21.4541727 Z M101.452684,23.2264696 L98.8091411,23.2264696 L98.8091411,18.9956661 L101.452684,18.9956661 C102.842188,18.9956661 103.631067,20.1360577 103.631067,21.1115615 C103.631067,22.0683057 102.842188,23.2264696 101.452684,23.2264696 Z M101.404873,17.2776735 L96.9514894,17.2776735 L96.9514894,29.6215489 L98.8091411,29.6215489 L98.8091411,24.9444622 L101.404873,24.9444622 C103.464725,24.9444622 105.489715,23.4663962 105.489715,21.1115615 C105.489715,18.7557395 103.464725,17.2776735 101.404873,17.2776735 Z M77.1189409,28.2214837 C75.8360158,28.2214837 74.7602711,27.1551434 74.7602711,25.6918877 C74.7602711,24.2128343 75.8360158,23.1316838 77.1189409,23.1316838 C78.3869251,23.1316838 79.381989,24.2128343 79.381989,25.6918877 C79.381989,27.1551434 78.3869251,28.2214837 77.1189409,28.2214837 Z M79.2534972,22.4158536 L79.1897494,22.4158536 C78.7724003,21.9221776 77.969576,21.4768818 76.9585753,21.4768818 C74.8409519,21.4768818 72.8986351,23.3222428 72.8986351,25.6918877 C72.8986351,28.0467223 74.8409519,29.8752983 76.9585753,29.8752983 C77.969576,29.8752983 78.7724003,29.4300026 79.1897494,28.9215163 L79.2534972,28.9215163 L79.2534972,29.5257757 C79.2534972,31.1321975 78.3869251,31.9911938 76.9904492,31.9911938 C75.8519527,31.9911938 75.1457463,31.1795904 74.8568889,30.4963428 L73.2362994,31.1637928 C73.7014594,32.2775259 74.9365737,33.6459958 76.9904492,33.6459958 C79.1738125,33.6459958 81.0185154,32.373299 81.0185154,29.2710389 L81.0185154,21.7316186 L79.2534972,21.7316186 L79.2534972,22.4158536 Z M82.3024366,29.6215489 L84.1640725,29.6215489 L84.1640725,17.2776735 L82.3024366,17.2776735 L82.3024366,29.6215489 Z M86.9082175,25.5487217 C86.8594106,23.9265022 88.1762017,23.0991012 89.1224586,23.0991012 C89.8615351,23.0991012 90.4870607,23.4654088 90.6952372,23.9906801 L86.9082175,25.5487217 Z M92.6853649,24.1496438 C92.3327597,23.210672 91.257015,21.4768818 89.0587108,21.4768818 C86.8763436,21.4768818 85.0625185,23.1790767 85.0625185,25.6760901 C85.0625185,28.0309247 86.8594106,29.8752983 89.2668873,29.8752983 C91.2092041,29.8752983 92.3327597,28.6983747 92.7979196,28.0141397 L91.3536328,27.0603576 C90.8725359,27.7603902 90.2141403,28.2214837 89.2668873,28.2214837 C88.3196344,28.2214837 87.6462979,27.7919855 87.2130118,26.9487869 L92.8776044,24.6265348 L92.6853649,24.1496438 Z M47.5548873,22.7653762 L47.5548873,24.5465593 L51.8558739,24.5465593 C51.7273822,25.5487217 51.3907139,26.2803495 50.876747,26.7898232 C50.2512214,27.4098803 49.2720946,28.0941152 47.5548873,28.0941152 C44.9073601,28.0941152 42.8375477,25.9782198 42.8375477,23.353838 C42.8375477,20.7294563 44.9073601,18.6135609 47.5548873,18.6135609 C48.9832372,18.6135609 50.0261119,19.1704274 50.7970623,19.8862576 L52.0640504,18.6293585 C50.9893018,17.6113985 49.5609519,16.8323778 47.5548873,16.8323778 C43.9282333,16.8323778 40.8792939,19.7588892 40.8792939,23.353838 C40.8792939,26.9487869 43.9282333,29.8752983 47.5548873,29.8752983 C49.5131411,29.8752983 50.9893018,29.2394436 52.1447313,28.0467223 C53.3320347,26.8688113 53.7015729,25.2149967 53.7015729,23.8791093 C53.7015729,23.4654088 53.6687029,23.0833036 53.6049551,22.7653762 L47.5548873,22.7653762 Z M58.5902348,28.2214837 C57.3063136,28.2214837 56.1996911,27.1719284 56.1996911,25.6760901 C56.1996911,24.1654414 57.3063136,23.1316838 58.5902348,23.1316838 C59.874156,23.1316838 60.9807786,24.1654414 60.9807786,25.6760901 C60.9807786,27.1719284 59.874156,28.2214837 58.5902348,28.2214837 Z M58.5902348,21.4768818 C56.247502,21.4768818 54.3380552,23.2422673 54.3380552,25.6760901 C54.3380552,28.0941152 56.247502,29.8752983 58.5902348,29.8752983 C60.9329677,29.8752983 62.8424145,28.0941152 62.8424145,25.6760901 C62.8424145,23.2422673 60.9329677,21.4768818 58.5902348,21.4768818 Z M67.8665406,28.2214837 C66.5836154,28.2214837 65.4759968,27.1719284 65.4759968,25.6760901 C65.4759968,24.1654414 66.5836154,23.1316838 67.8665406,23.1316838 C69.1504618,23.1316838 70.2580804,24.1654414 70.2580804,25.6760901 C70.2580804,27.1719284 69.1504618,28.2214837 67.8665406,28.2214837 Z M67.8665406,21.4768818 C65.5238077,21.4768818 63.6143609,23.2422673 63.6143609,25.6760901 C63.6143609,28.0941152 65.5238077,29.8752983 67.8665406,29.8752983 C70.2102695,29.8752983 72.1197163,28.0941152 72.1197163,25.6760901 C72.1197163,23.2422673 70.2102695,21.4768818 67.8665406,21.4768818 Z" id="Fill-17" fill="#FFFFFF"></path>
                            <g id="Group-26" transform="translate(9.960599, 19.748028)">
                                <mask id="mask-2" fill="white">
                                    <use xlink:href="#path-1"></use>
                                </mask>
                                <g id="Clip-25"></g>
                                <path d="M1.38651537,12.6983347 C1.04187864,12.6983347 0.742064618,12.5867639 0.506994484,12.3774453 L0.506994484,12.3764579 C0.742064618,12.5867639 1.0428747,12.6983347 1.38751143,12.6983347 C1.41739322,12.6983347 1.44827108,12.6973474 1.47914894,12.6953727 C1.44827108,12.6973474 1.41739322,12.6983347 1.38651537,12.6983347 Z M1.38751143,12.5532005 C1.0428747,12.5541813 0.742064618,12.4426105 0.506994484,12.2323046 L12.8471805,0 L16.9609078,4.07875132 L2.5030985,12.222431 C2.10367849,12.4475473 1.72417967,12.5532005 1.38751143,12.5532005 Z M0.504006304,12.3744832 C0.482092987,12.3547362 0.460179669,12.3340018 0.439262411,12.3122801 L0.504006304,12.3744832 Z" id="Fill-24" fill="url(#linearGradient-3)" mask="url(#mask-2)"></path>
                            </g>
                            <g id="Group-29" transform="translate(9.960599, 6.912452)">
                                <mask id="mask-5" fill="white">
                                    <use xlink:href="#path-4"></use>
                                </mask>
                                <g id="Clip-28"></g>
                                <path d="M12.8471805,12.8355767 L0.505998424,0.603272103 C0.741068558,0.393953468 1.04088258,0.282382686 1.38551931,0.282382686 C1.72318361,0.282382686 2.10268243,0.389016708 2.5030985,0.615120327 L16.9609078,8.75781269 L12.8471805,12.8355767 Z M17.0535414,8.66598894 L2.5030985,0.470966928 C2.10268243,0.244863308 1.72318361,0.138229287 1.38551931,0.138229287 C1.38452325,0.138229287 1.38253113,0.138229287 1.38153507,0.138229287 C1.38253113,0.138229287 1.38452325,0.138229287 1.38651537,0.138229287 C1.72417967,0.138229287 2.10268243,0.244863308 2.5030985,0.469979576 L17.0535414,8.66500159 L17.0535414,8.66598894 Z" id="Fill-27" fill="url(#linearGradient-6)" mask="url(#mask-5)"></path>
                            </g>
                            <g id="Group-47" transform="translate(26.893617, 19.748028)">
                                <mask id="mask-8" fill="white">
                                    <use xlink:href="#path-7"></use>
                                </mask>
                                <g id="Clip-46"></g>
                                <path d="M0.120523247,4.17057506 L0.0278896769,4.07875132 L4.99424429,1.28158296 C5.62574626,0.926136223 5.97934752,0.468004872 6.03811505,0.0019747041 C6.03811505,0.172786609 6.00026478,0.344585866 5.92356816,0.51046101 C5.76917888,0.847148059 5.45940426,1.16408807 4.99424429,1.42573636 L0.120523247,4.17057506 Z" id="Fill-45" fill="url(#linearGradient-9)" mask="url(#mask-8)"></path>
                            </g>
                            <g id="Group-51" transform="translate(26.893617, 14.811268)">
                                <mask id="mask-11" fill="white">
                                    <use xlink:href="#path-10"></use>
                                </mask>
                                <g id="Clip-50"></g>
                                <path d="M6.03811505,4.93676025 C5.97934752,4.46875538 5.62574626,4.01062403 4.99424429,3.65616464 L0.0278896769,0.858996284 L0.120523247,0.767172543 L4.99424429,3.51201124 C5.69049015,3.90399001 6.03811505,4.42037513 6.03811505,4.93676025 Z" id="Fill-49" fill="url(#linearGradient-12)" mask="url(#mask-11)"></path>
                            </g>
                        </g>
                        <g id="Group-20" transform="translate(9.932709, 7.515724)">
                            <mask id="mask-14" fill="white">
                                <use xlink:href="#path-13"></use>
                            </mask>
                            <g id="Clip-19"></g>
                            <path d="M0.534884161,24.4646091 L0.461175729,24.3945071 C0.171322301,24.0904027 0,23.6184484 0,23.0072775 L0,23.1504435 L0,1.30922882 C0,1.31120352 0,1.31317823 0,1.31515293 L0,1.45930633 C0,0.797780457 0.200208038,0.298180319 0.533888101,0 L12.8750701,12.2323046 L0.534884161,24.4646091 Z M0,1.30824147 C0,1.2539371 0.00199211978,1.20062009 0.00398423956,1.14927779 C0.00199211978,1.20062009 0,1.2539371 0,1.30824147 Z M0.00498029945,1.14631573 C0.00498029945,1.14631573 0.00498029945,1.14532838 0.00498029945,1.14434103 C0.00498029945,1.14532838 0.00498029945,1.14631573 0.00498029945,1.14631573 Z M0.00498029945,1.13940427 L0.00498029945,1.13841691 L0.00498029945,1.13940427 Z" id="Fill-18" fill="url(#linearGradient-15)" mask="url(#mask-14)"></path>
                        </g>
                        <g id="Group-23" transform="translate(21.913318, 14.811268)">
                            <mask id="mask-17" fill="white">
                                <use xlink:href="#path-16"></use>
                            </mask>
                            <g id="Clip-22"></g>
                            <path d="M5.00719307,9.16065232 L5.1008227,9.10733531 L9.97454374,6.36249661 C10.4397037,6.10084832 10.7494783,5.78390831 10.9038676,5.44722126 C10.7494783,5.78390831 10.4397037,6.10084832 9.97454374,6.36348396 L5.1008227,9.10832266 L5.00719307,9.16065232 Z M5.00818913,9.01551157 L0.894461781,4.93676025 L5.00818913,0.858996284 L9.97454374,3.65616464 C10.6060457,4.01062403 10.959647,4.46875538 11.0184145,4.93676025 C11.0184145,4.93676025 11.0184145,4.9377476 11.0184145,4.93873496 C10.959647,5.40476512 10.6060457,5.86289647 9.97454374,6.21834321 L5.00818913,9.01551157 Z" id="Fill-21" fill="url(#linearGradient-18)" mask="url(#mask-17)"></path>
                        </g>
                    </g>
                </g>
            </g>
        </g>
    </g>
</svg>