<?xml version="1.0" encoding="UTF-8"?>
<svg width="32px" height="32px" viewBox="0 0 32 32" version="1.1" xmlns="http://www.w3.org/2000/svg" xmlns:xlink="http://www.w3.org/1999/xlink">
    <title>ic_notification</title>
    <g id="Page-1" stroke="none" stroke-width="1" fill="none" fill-rule="evenodd">
        <g id="Crictracker_Home_28Jul2021_Videos" transform="translate(-1269.000000, -162.000000)" fill-rule="nonzero">
            <g id="Group-59-Copy" transform="translate(0.000000, 150.000000)">
                <g id="ic_notification" transform="translate(1269.000000, 12.000000)">
                    <rect id="ViewBox" x="0" y="0" width="32" height="32"></rect>
                    <path d="M22.875,17.7678309 L22.875,14.4206303 C22.87185,11.3412893 20.6273918,8.71311187 17.5625,8.19988968 L17.5625,7.05257879 C17.5625,6.47125558 17.0868025,6 16.5,6 C15.9131975,6 15.4375,6.47125558 15.4375,7.05257879 L15.4375,8.19988968 C12.3726082,8.71311187 10.12815,11.3412893 10.125,14.4206303 L10.125,17.7678309 C8.85453826,18.2128068 8.00378714,19.4011649 8,20.7361031 L8,22.8412607 C8,23.4225839 8.47569745,23.8938395 9.0625,23.8938395 L12.39875,23.8938395 C12.9017352,25.72739 14.5820385,27 16.5,27 C18.4179615,27 20.0982648,25.72739 20.60125,23.8938395 L23.9375,23.8938395 C24.5243025,23.8938395 25,23.4225839 25,22.8412607 L25,20.7361031 C24.9962129,19.4011649 24.1454617,18.2128068 22.875,17.7678309 Z M12.25,14.4206303 C12.25,12.0953375 14.1527898,10.2103152 16.5,10.2103152 C18.8472102,10.2103152 20.75,12.0953375 20.75,14.4206303 L20.75,19.6835243 L12.25,19.6835243 L12.25,14.4206303 Z M16.5,24.9464183 C15.745389,24.9419059 15.0497986,24.5412692 14.6725,23.8938395 L18.3275,23.8938395 C17.9502014,24.5412692 17.254611,24.9419059 16.5,24.9464183 Z M22.875,21.7886819 L10.125,21.7886819 L10.125,20.7361031 C10.125,20.1547799 10.6006975,19.6835243 11.1875,19.6835243 L21.8125,19.6835243 C22.3993025,19.6835243 22.875,20.1547799 22.875,20.7361031 L22.875,21.7886819 Z" id="Icon-Shape" fill="#FFFFFF"></path>
                </g>
            </g>
        </g>
    </g>
</svg>