<?xml version="1.0" encoding="UTF-8"?>
<svg width="32px" height="32px" viewBox="0 0 32 32" version="1.1" xmlns="http://www.w3.org/2000/svg" xmlns:xlink="http://www.w3.org/1999/xlink">
    <title>ic_search</title>
    <g id="Page-1" stroke="none" stroke-width="1" fill="none" fill-rule="evenodd">
        <g id="Crictracker_Home_28Jul2021_Videos" transform="translate(-1221.000000, -162.000000)" fill-rule="nonzero">
            <g id="Group-59-Copy" transform="translate(0.000000, 150.000000)">
                <g id="ic_search" transform="translate(1221.000000, 12.000000)">
                    <rect id="ViewBox" x="0" y="0" width="32" height="32"></rect>
                    <path d="M26.6910946,25.1453171 L22.6125225,21.0966518 C25.899801,16.9947871 25.4101071,11.0368992 21.4972584,7.5277308 C17.5844097,4.01856236 11.6131739,4.18208082 7.89793783,7.90013946 C4.18270174,11.6181981 4.01930742,17.5939704 7.52581189,21.5097917 C11.0323164,25.4256131 16.9856813,25.9156791 21.0844321,22.6259031 L25.1300239,26.6745684 C25.3364443,26.8828465 25.6174324,27 25.9105592,27 C26.203686,27 26.4846742,26.8828465 26.6910946,26.6745684 C27.1029685,26.248142 27.1029685,25.5717434 26.6910946,25.1453171 L26.6910946,25.1453171 Z M14.9171035,22.6259031 C10.6670409,22.6259031 7.22168441,19.1779291 7.22168441,14.9246377 C7.22168441,10.6713462 10.6670409,7.22337227 14.9171035,7.22337227 C19.167166,7.22337227 22.6125225,10.6713462 22.6125225,14.9246377 C22.6125225,19.1779291 19.167166,22.6259031 14.9171035,22.6259031 L14.9171035,22.6259031 Z" id="Icon-Shape" fill="#FFFFFF"></path>
                </g>
            </g>
        </g>
    </g>
</svg>