<?xml version="1.0" encoding="UTF-8"?>
<svg width="33px" height="32px" viewBox="0 0 33 32" version="1.1" xmlns="http://www.w3.org/2000/svg" xmlns:xlink="http://www.w3.org/1999/xlink">
    <title>instagram</title>
    <g id="Page-1" stroke="none" stroke-width="1" fill="none" fill-rule="evenodd">
        <g id="Crictracker_Home_28Jul2021_Article" transform="translate(-1198.000000, -8309.000000)" fill="#F2F4F7" fill-rule="nonzero">
            <g id="Group-93" transform="translate(0.000000, 7839.000000)">
                <g id="Group-79" transform="translate(1109.000000, 470.000000)">
                    <g id="instagram" transform="translate(89.600000, 0.000000)">
                        <path d="M15.9569778,3.2471803e-13 C24.7694222,3.2471803e-13 31.9139556,7.14453333 31.9139556,15.9569778 C31.9139556,24.7694222 24.7694222,31.9139556 15.9569778,31.9139556 C7.14453333,31.9139556 -5.32907052e-15,24.7694222 -5.32907052e-15,15.9569778 C-5.32907052e-15,7.14453333 7.14453333,3.2471803e-13 15.9569778,3.2471803e-13 Z M20.7128889,6.40142222 L11.2010667,6.40142222 C8.60301261,6.40142222 6.47619304,8.45802412 6.36312759,11.0287083 L6.3584,11.2440889 L6.3584,20.7559111 C6.3584,23.3543111 8.4150019,25.4808034 10.985686,25.5938509 L11.2010667,25.5985778 L20.7128889,25.5985778 C23.3112889,25.5985778 25.4377812,23.5423125 25.5508287,20.971319 L25.5555556,20.7559111 L25.5555556,11.2440889 C25.5555556,8.57386667 23.3834667,6.40142222 20.7128889,6.40142222 Z M20.7128889,8.49066667 C22.175223,8.49066667 23.3747816,9.63606475 23.4616319,11.0766106 L23.4666667,11.2440889 L23.4666667,20.7559111 C23.4666667,22.2182453 22.3209389,23.4178039 20.8803686,23.5046541 L20.7128889,23.5096889 L11.2010667,23.5096889 C9.7390749,23.5096889 8.53952897,22.3639611 8.4526792,20.9233908 L8.44764444,20.7559111 L8.44764444,11.2440889 C8.44764444,9.78209712 9.59304252,8.5825512 11.0335884,8.49570142 L11.2010667,8.49066667 L20.7128889,8.49066667 Z M15.9569778,11.056 C13.2309333,11.056 11.0129778,13.2739556 11.0129778,16 C11.0129778,18.7264 13.2309333,20.9443556 15.9569778,20.9443556 C18.6830222,20.9443556 20.9013333,18.7260444 20.9013333,16 C20.9013333,13.2739556 18.6833778,11.056 15.9569778,11.056 Z M15.9569778,13.1452444 C17.5310222,13.1452444 18.8117333,14.4263111 18.8117333,15.9996444 C18.8117333,17.5740444 17.5313778,18.8551111 15.9569778,18.8551111 C14.3832889,18.8551111 13.1018667,17.5740444 13.1018667,15.9996444 C13.1018667,14.4259556 14.3832889,13.1452444 15.9569778,13.1452444 Z M21.0602667,9.73866667 C20.4149333,9.73866667 19.8901333,10.2634667 19.8901333,10.9084444 C19.8901333,11.5534222 20.4149333,12.0782222 21.0602667,12.0782222 C21.7052444,12.0782222 22.2300444,11.5534222 22.2300444,10.9084444 C22.2300444,10.2634667 21.7052444,9.73866667 21.0602667,9.73866667 Z" id="Combined-Shape"></path>
                    </g>
                </g>
            </g>
        </g>
    </g>
</svg>