<?xml version="1.0" encoding="UTF-8"?>
<svg width="33px" height="32px" viewBox="0 0 33 32" version="1.1" xmlns="http://www.w3.org/2000/svg" xmlns:xlink="http://www.w3.org/1999/xlink">
    <title>linkedin</title>
    <g id="Page-1" stroke="none" stroke-width="1" fill="none" fill-rule="evenodd">
        <g id="Crictracker_Home_28Jul2021_Article" transform="translate(-1243.000000, -8309.000000)" fill="#F2F4F7" fill-rule="nonzero">
            <g id="Group-93" transform="translate(0.000000, 7839.000000)">
                <g id="Group-79" transform="translate(1109.000000, 470.000000)">
                    <g id="linkedin" transform="translate(134.400000, 0.000000)">
                        <path d="M15.8861593,-5.14077669e-12 C24.6598428,-5.14077669e-12 31.7723186,7.11247578 31.7723186,15.8861593 C31.7723186,24.6598428 24.6598428,31.7723186 15.8861593,31.7723186 C7.11247578,31.7723186 1.58060232e-11,24.6598428 1.58060232e-11,15.8861593 C1.58060232e-11,7.11247578 7.11247578,-5.14077669e-12 15.8861593,-5.14077669e-12 Z M20.026,13.0493333 C18.4126667,13.0493333 17.33,13.9346667 16.888,14.774 L16.8413333,14.774 L16.8413333,13.3173333 L13.6593333,13.3173333 L13.6593333,23.9993333 L16.9726667,23.9993333 L16.9726667,18.71 C16.9726667,17.3173333 17.2366667,15.9706667 18.9613333,15.9706667 C20.6606667,15.9706667 20.686,17.56 20.686,18.7993333 L20.686,24 L23.996,24 L23.996,23.9993333 L24,23.9993333 L24,18.1313333 C24,15.2606667 23.382,13.0493333 20.026,13.0493333 Z M11.5813333,13.318 L8.264,13.318 L8.264,24 L11.5813333,24 L11.5813333,13.318 Z M9.92133333,8 C8.86066667,8 8,8.86066667 8,9.92133333 C8,10.982 8.86066667,11.8606667 9.92133333,11.8606667 C10.982,11.8606667 11.8426667,10.982 11.8426667,9.92133333 C11.842,8.86066667 10.9813333,8 9.92133333,8 Z" id="Combined-Shape"></path>
                    </g>
                </g>
            </g>
        </g>
    </g>
</svg>