<?xml version="1.0" encoding="UTF-8"?>
<svg width="26px" height="26px" viewBox="0 0 26 26" version="1.1" xmlns="http://www.w3.org/2000/svg" xmlns:xlink="http://www.w3.org/1999/xlink">
    <title>ic_notification</title>
    <g id="Page-1" stroke="none" stroke-width="1" fill="none" fill-rule="evenodd">
        <g id="Crictracker_Home_28Jul2021_Article" transform="translate(-1324.000000, -622.000000)" fill-rule="nonzero">
            <g id="Group-30" transform="translate(1065.000000, 509.000000)">
                <g id="Group-28-Copy" transform="translate(0.000000, 100.000000)">
                    <g id="Group-113" transform="translate(260.000000, 14.000000)">
                        <rect id="ViewBox" stroke="#045DE9" fill="#045DE9" x="0" y="0" width="24" height="24" rx="12"></rect>
                        <path d="M17.15625,12.8258732 L17.15625,10.3154728 C17.1538875,8.00596696 15.4705439,6.0348339 13.171875,5.64991726 L13.171875,4.78943409 C13.171875,4.35344168 12.8151019,4 12.375,4 C11.9348981,4 11.578125,4.35344168 11.578125,4.78943409 L11.578125,5.64991726 C9.27945614,6.0348339 7.59611248,8.00596696 7.59375,10.3154728 L7.59375,12.8258732 C6.64090369,13.1596051 6.00284035,14.0508737 6,15.0520773 L6,16.6309455 C6,17.0669379 6.35677309,17.4203796 6.796875,17.4203796 L9.2990625,17.4203796 C9.67630139,18.7955425 10.9365289,19.75 12.375,19.75 C13.8134711,19.75 15.0736986,18.7955425 15.4509375,17.4203796 L17.953125,17.4203796 C18.3932269,17.4203796 18.75,17.0669379 18.75,16.6309455 L18.75,15.0520773 C18.7471596,14.0508737 18.1090963,13.1596051 17.15625,12.8258732 Z M9.1875,10.3154728 C9.1875,8.57150311 10.6145924,7.15773638 12.375,7.15773638 C14.1354076,7.15773638 15.5625,8.57150311 15.5625,10.3154728 L15.5625,14.2626432 L9.1875,14.2626432 L9.1875,10.3154728 Z M12.375,18.2098137 C11.8090417,18.2064295 11.287349,17.9059519 11.004375,17.4203796 L13.745625,17.4203796 C13.462651,17.9059519 12.9409583,18.2064295 12.375,18.2098137 Z M17.15625,15.8415114 L7.59375,15.8415114 L7.59375,15.0520773 C7.59375,14.6160849 7.95052309,14.2626432 8.390625,14.2626432 L16.359375,14.2626432 C16.7994769,14.2626432 17.15625,14.6160849 17.15625,15.0520773 L17.15625,15.8415114 Z" id="Icon-Shape" fill="#F2F4F7"></path>
                    </g>
                </g>
            </g>
        </g>
    </g>
</svg>