<?xml version="1.0" encoding="UTF-8"?>
<svg width="24px" height="24px" viewBox="0 0 24 24" version="1.1" xmlns="http://www.w3.org/2000/svg" xmlns:xlink="http://www.w3.org/1999/xlink">
    <title>military_tech_black_24dp</title>
    <g id="Page-1" stroke="none" stroke-width="1" fill="none" fill-rule="evenodd">
        <g id="Crictracker_Home_28Jul2021_Article" transform="translate(-1065.000000, -1153.000000)">
            <g id="military_tech_black_24dp" transform="translate(1065.000000, 1153.000000)">
                <rect id="Rectangle" x="0" y="0" width="24" height="24"></rect>
                <path d="M17,10.43 L17,2 L7,2 L7,10.43 C7,10.78 7.18,11.11 7.49,11.29 L11.67,13.8 L10.68,16.14 L7.27,16.43 L9.86,18.67 L9.07,22 L12,20.23 L14.93,22 L14.15,18.67 L16.74,16.43 L13.33,16.14 L12.34,13.8 L16.52,11.29 C16.82,11.11 17,10.79 17,10.43 Z M11,11.07 L9,9.87 L9,4 L11,4 L11,11.07 Z M15,9.87 L13,11.07 L13,4 L15,4 L15,9.87 Z" id="Shape" fill="#245FE7" fill-rule="nonzero"></path>
            </g>
        </g>
    </g>
</svg>