<?xml version="1.0" encoding="UTF-8"?>
<svg width="32px" height="32px" viewBox="0 0 32 32" version="1.1" xmlns="http://www.w3.org/2000/svg" xmlns:xlink="http://www.w3.org/1999/xlink">
    <title>telegram</title>
    <g id="Page-1" stroke="none" stroke-width="1" fill="none" fill-rule="evenodd">
        <g id="Crictracker_Home_28Jul2021_Article" transform="translate(-1333.000000, -8309.000000)" fill="#F2F4F7">
            <g id="Group-93" transform="translate(0.000000, 7839.000000)">
                <g id="Group-79" transform="translate(1109.000000, 470.000000)">
                    <g id="telegram" transform="translate(224.000000, 0.000000)">
                        <path d="M15.8861593,0 C24.6598428,0 31.7723186,7.11247578 31.7723186,15.8861593 C31.7723186,24.6598428 24.6598428,31.7723186 15.8861593,31.7723186 C7.11247578,31.7723186 0,24.6598428 0,15.8861593 C0,7.11247578 7.11247578,0 15.8861593,0 Z M21.8035369,9.07980371 L5.83565346,15.1930222 C4.74587729,15.61602 4.76237769,16.2235169 5.65039901,16.4987655 L9.73274705,17.768509 L19.2152248,11.8352895 C19.6614855,11.539791 20.0672452,11.7032902 19.7334872,11.9987887 L12.063053,18.8860032 L11.7652959,23.0739816 C12.1913061,23.0739816 12.3758105,22.8909826 12.5970658,22.6712337 L14.5943638,20.7624935 L18.7329632,23.7932279 C19.4919814,24.2162258 20.0267443,23.9934769 20.2314992,23.0949815 L22.9480644,10.3660471 L22.9488144,10.3652971 C23.1895702,9.24330287 22.5430547,8.80455513 21.8035369,9.07980371 Z" id="Combined-Shape"></path>
                    </g>
                </g>
            </g>
        </g>
    </g>
</svg>