<?xml version="1.0" encoding="UTF-8"?>
<svg width="18px" height="18px" viewBox="0 0 18 18" version="1.1" xmlns="http://www.w3.org/2000/svg" xmlns:xlink="http://www.w3.org/1999/xlink">
    <title>Shape</title>
    <g id="Page-1" stroke="none" stroke-width="1" fill="none" fill-rule="evenodd">
        <g id="Crictracker_Home_28Jul2021_Article" transform="translate(-1068.000000, -512.000000)" fill="#235CE9" fill-rule="nonzero">
            <g id="emoji_events_black_24dp" transform="translate(1065.000000, 509.000000)">
                <path d="M19,5 L17,5 L17,3 L7,3 L7,5 L5,5 C3.9,5 3,5.9 3,7 L3,8 C3,10.55 4.92,12.63 7.39,12.94 C8.02,14.44 9.37,15.57 11,15.9 L11,19 L7,19 L7,21 L17,21 L17,19 L13,19 L13,15.9 C14.63,15.57 15.98,14.44 16.61,12.94 C19.08,12.63 21,10.55 21,8 L21,7 C21,5.9 20.1,5 19,5 Z M5,8 L5,7 L7,7 L7,10.82 C5.84,10.4 5,9.3 5,8 Z M19,8 C19,9.3 18.16,10.4 17,10.82 L17,7 L19,7 L19,8 Z" id="Shape"></path>
            </g>
        </g>
    </g>
</svg>