<?xml version="1.0" encoding="UTF-8"?>
<svg width="33px" height="32px" viewBox="0 0 33 32" version="1.1" xmlns="http://www.w3.org/2000/svg" xmlns:xlink="http://www.w3.org/1999/xlink">
    <title>twitter</title>
    <g id="Page-1" stroke="none" stroke-width="1" fill="none" fill-rule="evenodd">
        <g id="Crictracker_Home_28Jul2021_Article" transform="translate(-1153.000000, -8309.000000)" fill="#F2F4F7">
            <g id="Group-93" transform="translate(0.000000, 7839.000000)">
                <g id="Group-79" transform="translate(1109.000000, 470.000000)">
                    <g id="twitter" transform="translate(44.800000, 0.000000)">
                        <path d="M15.8864425,0 C24.660126,0 31.7726018,7.11247578 31.7726018,15.8861593 C31.7726018,24.6598428 24.660126,31.7723186 15.8864425,31.7723186 C7.11275897,31.7723186 0.000283185841,24.6598428 0.000283185841,15.8861593 C0.000283185841,7.11247578 7.11275897,0 15.8864425,0 Z M19.0772439,9.6 C17.2647038,9.6 15.7946465,11.0471242 15.7946465,12.8313885 C15.7946465,13.0846653 15.8237784,13.3311946 15.8800837,13.5678434 C13.1519708,13.4331319 10.7330473,12.1467457 9.11390355,10.19114 C8.83139797,10.6682933 8.66933671,11.2237673 8.66933671,11.8158712 C8.66933671,12.9366996 9.24928101,13.9261903 10.1296017,14.505522 C9.59176395,14.4888939 9.08526131,14.343579 8.64289771,14.1009056 L8.6426529,14.1418733 L8.6426529,14.1418733 C8.6426529,15.7075628 9.77463369,17.0134689 11.276026,17.3101233 C11.0008646,17.3843472 10.7102804,17.423628 10.4113729,17.423628 C10.1993713,17.423628 9.99397944,17.4036261 9.79372852,17.3660322 C10.2113668,18.6495265 11.4233989,19.5838313 12.8601626,19.6100988 C11.7365052,20.4769274 10.3212844,20.9933616 8.78292647,20.9933616 C8.5185365,20.9933616 8.25659458,20.9781794 8.00028319,20.9480561 C9.4522248,21.8652509 11.1781038,22.4 13.0317713,22.4 C19.069655,22.4 22.371592,17.476163 22.371592,13.2056406 C22.371592,13.0656274 22.3684095,12.9260962 22.3620446,12.7877699 C23.0039247,12.3323054 23.5603676,11.7633362 24.0002832,11.1153234 C23.4117707,11.372215 22.7787036,11.5459663 22.114791,11.623564 C22.7926575,11.2237673 23.3128693,10.5911776 23.5584092,9.83616681 C22.9241181,10.2065631 22.2212814,10.4752631 21.4738901,10.620096 C20.8750958,9.99232608 20.0219485,9.6 19.0772439,9.6 Z" id="Combined-Shape"></path>
                    </g>
                </g>
            </g>
        </g>
    </g>
</svg>