<?xml version="1.0" encoding="UTF-8"?>
<svg width="24px" height="24px" viewBox="0 0 24 24" version="1.1" xmlns="http://www.w3.org/2000/svg" xmlns:xlink="http://www.w3.org/1999/xlink">
    <title>Group 11</title>
    <g id="Page-1" stroke="none" stroke-width="1" fill="none" fill-rule="evenodd">
        <g id="Crictracker_Home_28Jul2021_Videos" transform="translate(-915.000000, -520.000000)">
            <g id="Group-124" transform="translate(405.000000, 508.000000)">
                <g id="Group-11" transform="translate(510.000000, 12.000000)">
                    <path d="M12,0 C18.627417,-1.21743675e-15 24,5.372583 24,12 C24,18.627417 18.627417,24 12,24 C5.372583,24 8.11624501e-16,18.627417 0,12 C-8.11624501e-16,5.372583 5.372583,1.21743675e-15 12,0 Z" id="Rectangle" fill="#F2F4F7"></path>
                    <path d="M10.2949984,6.93437401 L15.9648041,10.4780025 C16.6673089,10.917068 16.8808686,11.8424936 16.4418031,12.5449984 C16.3210821,12.7381521 16.1579578,12.9012764 15.9648041,13.0219975 L10.2949984,16.565626 C9.59249361,17.0046915 8.66706804,16.7911317 8.22800254,16.0886269 C8.07900417,15.8502295 8,15.5747581 8,15.2936285 L8,8.20637146 C8,7.37794434 8.67157288,6.70637146 9.5,6.70637146 C9.78112957,6.70637146 10.056601,6.78537563 10.2949984,6.93437401 Z" id="Rectangle" fill="#045DE9"></path>
                </g>
            </g>
        </g>
    </g>
</svg>